M48
; DRILL file {KiCad 8.0.5} date 2025-03-31T18:24:39-0500
; FORMAT={-:-/ absolute / metric / decimal}
; #@! TF.CreationDate,2025-03-31T18:24:39-05:00
; #@! TF.GenerationSoftware,Kicad,Pcbnew,8.0.5
; #@! TF.FileFunction,MixedPlating,1,2
FMAT,2
METRIC
; #@! TA.AperFunction,Plated,PTH,ViaDrill
T1C0.300
; #@! TA.AperFunction,Plated,PTH,ComponentDrill
T2C0.300
; #@! TA.AperFunction,Plated,PTH,ComponentDrill
T3C1.000
; #@! TA.AperFunction,Plated,PTH,ComponentDrill
T4C1.190
; #@! TA.AperFunction,NonPlated,NPTH,ComponentDrill
T5C2.200
; #@! TA.AperFunction,NonPlated,NPTH,ComponentDrill
T6C3.200
%
G90
G05
T1
X53.594Y-61.468
X56.337Y-42.57
X57.201Y-45.771
X58.42Y-49.581
X61.011Y-58.725
X61.316Y-69.901
X62.484Y-52.73
X64.1Y-61.825
X64.618Y-53.899
X66.9Y-51.8
X67.513Y-74.219
X68.377Y-71.679
X68.7Y-62.9
X68.8Y-66.2
X70.4Y-66.2
X70.51Y-52.375
X71.1Y-59.3
X72.6Y-66.2
X73.863Y-52.273
X74.5Y-66.2
X74.524Y-68.478
X75.95Y-61.65
X76.2Y-38.1
X76.2Y-45.72
X76.5Y-66.2
X76.606Y-64.872
X77.6Y-64.3
X78.994Y-74.371
X81.28Y-45.72
X82.652Y-52.832
X83.363Y-71.171
X83.972Y-53.645
X85.649Y-51.105
X86.309Y-74.371
X86.36Y-40.64
X88.9Y-38.1
X88.9Y-50.8
X91.084Y-71.323
X91.44Y-45.72
X93.523Y-39.878
X101.905Y-58.979
T2
X80.9Y-57.325
X80.9Y-58.625
X80.9Y-59.925
X80.9Y-61.225
X80.9Y-62.525
X80.9Y-63.825
X80.9Y-65.125
X82.2Y-57.325
X82.2Y-58.625
X82.2Y-59.925
X82.2Y-61.225
X82.2Y-62.525
X82.2Y-63.825
X82.2Y-65.125
X83.5Y-57.325
X83.5Y-58.625
X83.5Y-59.925
X83.5Y-61.225
X83.5Y-62.525
X83.5Y-63.825
X83.5Y-65.125
T3
X64.4Y-49.7
X66.9Y-49.7
X69.4Y-49.7
T4
X50.72Y-46.53
X50.72Y-49.07
X51.12Y-54.19
X51.12Y-56.73
X51.12Y-59.27
X51.12Y-61.81
X99.7Y-54.3
X99.7Y-56.84
X99.9Y-61.3
X99.9Y-63.84
X100.1Y-47.5
X100.1Y-50.04
T5
X62.5Y-42.7
X71.3Y-42.7
T6
X52.2Y-39.3
X52.2Y-70.9
X100.1Y-39.3
X100.1Y-71.1
M30
