%TF.GenerationSoftware,KiCad,Pcbnew,8.0.5*%
%TF.CreationDate,2025-03-31T18:24:30-05:00*%
%TF.ProjectId,new_MotorDriver_v1.5_NEW,6e65775f-4d6f-4746-9f72-447269766572,rev?*%
%TF.SameCoordinates,Original*%
%TF.FileFunction,Legend,Top*%
%TF.FilePolarity,Positive*%
%FSLAX46Y46*%
G04 Gerber Fmt 4.6, Leading zero omitted, Abs format (unit mm)*
G04 Created by KiCad (PCBNEW 8.0.5) date 2025-03-31 18:24:30*
%MOMM*%
%LPD*%
G01*
G04 APERTURE LIST*
G04 Aperture macros list*
%AMRoundRect*
0 Rectangle with rounded corners*
0 $1 Rounding radius*
0 $2 $3 $4 $5 $6 $7 $8 $9 X,Y pos of 4 corners*
0 Add a 4 corners polygon primitive as box body*
4,1,4,$2,$3,$4,$5,$6,$7,$8,$9,$2,$3,0*
0 Add four circle primitives for the rounded corners*
1,1,$1+$1,$2,$3*
1,1,$1+$1,$4,$5*
1,1,$1+$1,$6,$7*
1,1,$1+$1,$8,$9*
0 Add four rect primitives between the rounded corners*
20,1,$1+$1,$2,$3,$4,$5,0*
20,1,$1+$1,$4,$5,$6,$7,0*
20,1,$1+$1,$6,$7,$8,$9,0*
20,1,$1+$1,$8,$9,$2,$3,0*%
%AMFreePoly0*
4,1,19,0.500000,-0.750000,0.000000,-0.750000,0.000000,-0.744911,-0.071157,-0.744911,-0.207708,-0.704816,-0.327430,-0.627875,-0.420627,-0.520320,-0.479746,-0.390866,-0.500000,-0.250000,-0.500000,0.250000,-0.479746,0.390866,-0.420627,0.520320,-0.327430,0.627875,-0.207708,0.704816,-0.071157,0.744911,0.000000,0.744911,0.000000,0.750000,0.500000,0.750000,0.500000,-0.750000,0.500000,-0.750000,
$1*%
%AMFreePoly1*
4,1,19,0.000000,0.744911,0.071157,0.744911,0.207708,0.704816,0.327430,0.627875,0.420627,0.520320,0.479746,0.390866,0.500000,0.250000,0.500000,-0.250000,0.479746,-0.390866,0.420627,-0.520320,0.327430,-0.627875,0.207708,-0.704816,0.071157,-0.744911,0.000000,-0.744911,0.000000,-0.750000,-0.500000,-0.750000,-0.500000,0.750000,0.000000,0.750000,0.000000,0.744911,0.000000,0.744911,
$1*%
G04 Aperture macros list end*
%ADD10C,0.100000*%
%ADD11C,0.125000*%
%ADD12C,0.300000*%
%ADD13C,0.150000*%
%ADD14C,0.120000*%
%ADD15C,0.200000*%
%ADD16C,0.127000*%
%ADD17C,0.010000*%
%ADD18RoundRect,0.250000X-0.550000X1.500000X-0.550000X-1.500000X0.550000X-1.500000X0.550000X1.500000X0*%
%ADD19RoundRect,0.250000X0.845000X-0.620000X0.845000X0.620000X-0.845000X0.620000X-0.845000X-0.620000X0*%
%ADD20O,2.190000X1.740000*%
%ADD21RoundRect,0.250000X-0.625000X0.312500X-0.625000X-0.312500X0.625000X-0.312500X0.625000X0.312500X0*%
%ADD22RoundRect,0.250000X-0.845000X0.620000X-0.845000X-0.620000X0.845000X-0.620000X0.845000X0.620000X0*%
%ADD23C,3.200000*%
%ADD24RoundRect,0.250000X-0.262500X-0.450000X0.262500X-0.450000X0.262500X0.450000X-0.262500X0.450000X0*%
%ADD25RoundRect,0.250000X-0.475000X0.250000X-0.475000X-0.250000X0.475000X-0.250000X0.475000X0.250000X0*%
%ADD26FreePoly0,270.000000*%
%ADD27FreePoly1,270.000000*%
%ADD28FreePoly0,90.000000*%
%ADD29FreePoly1,90.000000*%
%ADD30RoundRect,0.250000X0.475000X-0.250000X0.475000X0.250000X-0.475000X0.250000X-0.475000X-0.250000X0*%
%ADD31C,4.000000*%
%ADD32C,1.800000*%
G04 APERTURE END LIST*
D10*
X55996493Y-73748438D02*
X55901255Y-73700819D01*
X55901255Y-73700819D02*
X55758398Y-73700819D01*
X55758398Y-73700819D02*
X55615541Y-73748438D01*
X55615541Y-73748438D02*
X55520303Y-73843676D01*
X55520303Y-73843676D02*
X55472684Y-73938914D01*
X55472684Y-73938914D02*
X55425065Y-74129390D01*
X55425065Y-74129390D02*
X55425065Y-74272247D01*
X55425065Y-74272247D02*
X55472684Y-74462723D01*
X55472684Y-74462723D02*
X55520303Y-74557961D01*
X55520303Y-74557961D02*
X55615541Y-74653200D01*
X55615541Y-74653200D02*
X55758398Y-74700819D01*
X55758398Y-74700819D02*
X55853636Y-74700819D01*
X55853636Y-74700819D02*
X55996493Y-74653200D01*
X55996493Y-74653200D02*
X56044112Y-74605580D01*
X56044112Y-74605580D02*
X56044112Y-74272247D01*
X56044112Y-74272247D02*
X55853636Y-74272247D01*
X56472684Y-74700819D02*
X56472684Y-73700819D01*
X56472684Y-73700819D02*
X57044112Y-74700819D01*
X57044112Y-74700819D02*
X57044112Y-73700819D01*
X57520303Y-74700819D02*
X57520303Y-73700819D01*
X57520303Y-73700819D02*
X57758398Y-73700819D01*
X57758398Y-73700819D02*
X57901255Y-73748438D01*
X57901255Y-73748438D02*
X57996493Y-73843676D01*
X57996493Y-73843676D02*
X58044112Y-73938914D01*
X58044112Y-73938914D02*
X58091731Y-74129390D01*
X58091731Y-74129390D02*
X58091731Y-74272247D01*
X58091731Y-74272247D02*
X58044112Y-74462723D01*
X58044112Y-74462723D02*
X57996493Y-74557961D01*
X57996493Y-74557961D02*
X57901255Y-74653200D01*
X57901255Y-74653200D02*
X57758398Y-74700819D01*
X57758398Y-74700819D02*
X57520303Y-74700819D01*
X57911084Y-65252019D02*
X57911084Y-64252019D01*
X57911084Y-64252019D02*
X58292036Y-64252019D01*
X58292036Y-64252019D02*
X58387274Y-64299638D01*
X58387274Y-64299638D02*
X58434893Y-64347257D01*
X58434893Y-64347257D02*
X58482512Y-64442495D01*
X58482512Y-64442495D02*
X58482512Y-64585352D01*
X58482512Y-64585352D02*
X58434893Y-64680590D01*
X58434893Y-64680590D02*
X58387274Y-64728209D01*
X58387274Y-64728209D02*
X58292036Y-64775828D01*
X58292036Y-64775828D02*
X57911084Y-64775828D01*
X59387274Y-65252019D02*
X58911084Y-65252019D01*
X58911084Y-65252019D02*
X58911084Y-64252019D01*
X59720608Y-64252019D02*
X59720608Y-65061542D01*
X59720608Y-65061542D02*
X59768227Y-65156780D01*
X59768227Y-65156780D02*
X59815846Y-65204400D01*
X59815846Y-65204400D02*
X59911084Y-65252019D01*
X59911084Y-65252019D02*
X60101560Y-65252019D01*
X60101560Y-65252019D02*
X60196798Y-65204400D01*
X60196798Y-65204400D02*
X60244417Y-65156780D01*
X60244417Y-65156780D02*
X60292036Y-65061542D01*
X60292036Y-65061542D02*
X60292036Y-64252019D01*
X60720608Y-65204400D02*
X60863465Y-65252019D01*
X60863465Y-65252019D02*
X61101560Y-65252019D01*
X61101560Y-65252019D02*
X61196798Y-65204400D01*
X61196798Y-65204400D02*
X61244417Y-65156780D01*
X61244417Y-65156780D02*
X61292036Y-65061542D01*
X61292036Y-65061542D02*
X61292036Y-64966304D01*
X61292036Y-64966304D02*
X61244417Y-64871066D01*
X61244417Y-64871066D02*
X61196798Y-64823447D01*
X61196798Y-64823447D02*
X61101560Y-64775828D01*
X61101560Y-64775828D02*
X60911084Y-64728209D01*
X60911084Y-64728209D02*
X60815846Y-64680590D01*
X60815846Y-64680590D02*
X60768227Y-64632971D01*
X60768227Y-64632971D02*
X60720608Y-64537733D01*
X60720608Y-64537733D02*
X60720608Y-64442495D01*
X60720608Y-64442495D02*
X60768227Y-64347257D01*
X60768227Y-64347257D02*
X60815846Y-64299638D01*
X60815846Y-64299638D02*
X60911084Y-64252019D01*
X60911084Y-64252019D02*
X61149179Y-64252019D01*
X61149179Y-64252019D02*
X61292036Y-64299638D01*
D11*
X68832083Y-51507033D02*
X69213036Y-51507033D01*
X69022559Y-51697509D02*
X69022559Y-51316557D01*
X69403512Y-51197509D02*
X69713036Y-51197509D01*
X69713036Y-51197509D02*
X69546369Y-51387985D01*
X69546369Y-51387985D02*
X69617798Y-51387985D01*
X69617798Y-51387985D02*
X69665417Y-51411795D01*
X69665417Y-51411795D02*
X69689226Y-51435604D01*
X69689226Y-51435604D02*
X69713036Y-51483223D01*
X69713036Y-51483223D02*
X69713036Y-51602271D01*
X69713036Y-51602271D02*
X69689226Y-51649890D01*
X69689226Y-51649890D02*
X69665417Y-51673700D01*
X69665417Y-51673700D02*
X69617798Y-51697509D01*
X69617798Y-51697509D02*
X69474941Y-51697509D01*
X69474941Y-51697509D02*
X69427322Y-51673700D01*
X69427322Y-51673700D02*
X69403512Y-51649890D01*
X69855893Y-51197509D02*
X70022559Y-51697509D01*
X70022559Y-51697509D02*
X70189226Y-51197509D01*
X70308273Y-51197509D02*
X70617797Y-51197509D01*
X70617797Y-51197509D02*
X70451130Y-51387985D01*
X70451130Y-51387985D02*
X70522559Y-51387985D01*
X70522559Y-51387985D02*
X70570178Y-51411795D01*
X70570178Y-51411795D02*
X70593987Y-51435604D01*
X70593987Y-51435604D02*
X70617797Y-51483223D01*
X70617797Y-51483223D02*
X70617797Y-51602271D01*
X70617797Y-51602271D02*
X70593987Y-51649890D01*
X70593987Y-51649890D02*
X70570178Y-51673700D01*
X70570178Y-51673700D02*
X70522559Y-51697509D01*
X70522559Y-51697509D02*
X70379702Y-51697509D01*
X70379702Y-51697509D02*
X70332083Y-51673700D01*
X70332083Y-51673700D02*
X70308273Y-51649890D01*
X103477683Y-58199909D02*
X103477683Y-57699909D01*
X103477683Y-57699909D02*
X103596731Y-57699909D01*
X103596731Y-57699909D02*
X103668159Y-57723719D01*
X103668159Y-57723719D02*
X103715778Y-57771338D01*
X103715778Y-57771338D02*
X103739588Y-57818957D01*
X103739588Y-57818957D02*
X103763397Y-57914195D01*
X103763397Y-57914195D02*
X103763397Y-57985623D01*
X103763397Y-57985623D02*
X103739588Y-58080861D01*
X103739588Y-58080861D02*
X103715778Y-58128480D01*
X103715778Y-58128480D02*
X103668159Y-58176100D01*
X103668159Y-58176100D02*
X103596731Y-58199909D01*
X103596731Y-58199909D02*
X103477683Y-58199909D01*
X103977683Y-58199909D02*
X103977683Y-57699909D01*
X104501492Y-58199909D02*
X104334826Y-57961814D01*
X104215778Y-58199909D02*
X104215778Y-57699909D01*
X104215778Y-57699909D02*
X104406254Y-57699909D01*
X104406254Y-57699909D02*
X104453873Y-57723719D01*
X104453873Y-57723719D02*
X104477683Y-57747528D01*
X104477683Y-57747528D02*
X104501492Y-57795147D01*
X104501492Y-57795147D02*
X104501492Y-57866576D01*
X104501492Y-57866576D02*
X104477683Y-57914195D01*
X104477683Y-57914195D02*
X104453873Y-57938004D01*
X104453873Y-57938004D02*
X104406254Y-57961814D01*
X104406254Y-57961814D02*
X104215778Y-57961814D01*
X103841188Y-63819719D02*
X103793569Y-63795909D01*
X103793569Y-63795909D02*
X103722140Y-63795909D01*
X103722140Y-63795909D02*
X103650712Y-63819719D01*
X103650712Y-63819719D02*
X103603093Y-63867338D01*
X103603093Y-63867338D02*
X103579283Y-63914957D01*
X103579283Y-63914957D02*
X103555474Y-64010195D01*
X103555474Y-64010195D02*
X103555474Y-64081623D01*
X103555474Y-64081623D02*
X103579283Y-64176861D01*
X103579283Y-64176861D02*
X103603093Y-64224480D01*
X103603093Y-64224480D02*
X103650712Y-64272100D01*
X103650712Y-64272100D02*
X103722140Y-64295909D01*
X103722140Y-64295909D02*
X103769759Y-64295909D01*
X103769759Y-64295909D02*
X103841188Y-64272100D01*
X103841188Y-64272100D02*
X103864997Y-64248290D01*
X103864997Y-64248290D02*
X103864997Y-64081623D01*
X103864997Y-64081623D02*
X103769759Y-64081623D01*
X104079283Y-64295909D02*
X104079283Y-63795909D01*
X104079283Y-63795909D02*
X104364997Y-64295909D01*
X104364997Y-64295909D02*
X104364997Y-63795909D01*
X104603093Y-64295909D02*
X104603093Y-63795909D01*
X104603093Y-63795909D02*
X104722141Y-63795909D01*
X104722141Y-63795909D02*
X104793569Y-63819719D01*
X104793569Y-63819719D02*
X104841188Y-63867338D01*
X104841188Y-63867338D02*
X104864998Y-63914957D01*
X104864998Y-63914957D02*
X104888807Y-64010195D01*
X104888807Y-64010195D02*
X104888807Y-64081623D01*
X104888807Y-64081623D02*
X104864998Y-64176861D01*
X104864998Y-64176861D02*
X104841188Y-64224480D01*
X104841188Y-64224480D02*
X104793569Y-64272100D01*
X104793569Y-64272100D02*
X104722141Y-64295909D01*
X104722141Y-64295909D02*
X104603093Y-64295909D01*
X47089683Y-51100633D02*
X47470636Y-51100633D01*
X47280159Y-51291109D02*
X47280159Y-50910157D01*
X47970636Y-51291109D02*
X47684922Y-51291109D01*
X47827779Y-51291109D02*
X47827779Y-50791109D01*
X47827779Y-50791109D02*
X47780160Y-50862538D01*
X47780160Y-50862538D02*
X47732541Y-50910157D01*
X47732541Y-50910157D02*
X47684922Y-50933966D01*
X48161112Y-50838728D02*
X48184921Y-50814919D01*
X48184921Y-50814919D02*
X48232540Y-50791109D01*
X48232540Y-50791109D02*
X48351588Y-50791109D01*
X48351588Y-50791109D02*
X48399207Y-50814919D01*
X48399207Y-50814919D02*
X48423016Y-50838728D01*
X48423016Y-50838728D02*
X48446826Y-50886347D01*
X48446826Y-50886347D02*
X48446826Y-50933966D01*
X48446826Y-50933966D02*
X48423016Y-51005395D01*
X48423016Y-51005395D02*
X48137302Y-51291109D01*
X48137302Y-51291109D02*
X48446826Y-51291109D01*
X62743988Y-51068919D02*
X62696369Y-51045109D01*
X62696369Y-51045109D02*
X62624940Y-51045109D01*
X62624940Y-51045109D02*
X62553512Y-51068919D01*
X62553512Y-51068919D02*
X62505893Y-51116538D01*
X62505893Y-51116538D02*
X62482083Y-51164157D01*
X62482083Y-51164157D02*
X62458274Y-51259395D01*
X62458274Y-51259395D02*
X62458274Y-51330823D01*
X62458274Y-51330823D02*
X62482083Y-51426061D01*
X62482083Y-51426061D02*
X62505893Y-51473680D01*
X62505893Y-51473680D02*
X62553512Y-51521300D01*
X62553512Y-51521300D02*
X62624940Y-51545109D01*
X62624940Y-51545109D02*
X62672559Y-51545109D01*
X62672559Y-51545109D02*
X62743988Y-51521300D01*
X62743988Y-51521300D02*
X62767797Y-51497490D01*
X62767797Y-51497490D02*
X62767797Y-51330823D01*
X62767797Y-51330823D02*
X62672559Y-51330823D01*
X62982083Y-51545109D02*
X62982083Y-51045109D01*
X62982083Y-51045109D02*
X63267797Y-51545109D01*
X63267797Y-51545109D02*
X63267797Y-51045109D01*
X63505893Y-51545109D02*
X63505893Y-51045109D01*
X63505893Y-51045109D02*
X63624941Y-51045109D01*
X63624941Y-51045109D02*
X63696369Y-51068919D01*
X63696369Y-51068919D02*
X63743988Y-51116538D01*
X63743988Y-51116538D02*
X63767798Y-51164157D01*
X63767798Y-51164157D02*
X63791607Y-51259395D01*
X63791607Y-51259395D02*
X63791607Y-51330823D01*
X63791607Y-51330823D02*
X63767798Y-51426061D01*
X63767798Y-51426061D02*
X63743988Y-51473680D01*
X63743988Y-51473680D02*
X63696369Y-51521300D01*
X63696369Y-51521300D02*
X63624941Y-51545109D01*
X63624941Y-51545109D02*
X63505893Y-51545109D01*
X47172197Y-58199909D02*
X47005531Y-57961814D01*
X46886483Y-58199909D02*
X46886483Y-57699909D01*
X46886483Y-57699909D02*
X47076959Y-57699909D01*
X47076959Y-57699909D02*
X47124578Y-57723719D01*
X47124578Y-57723719D02*
X47148388Y-57747528D01*
X47148388Y-57747528D02*
X47172197Y-57795147D01*
X47172197Y-57795147D02*
X47172197Y-57866576D01*
X47172197Y-57866576D02*
X47148388Y-57914195D01*
X47148388Y-57914195D02*
X47124578Y-57938004D01*
X47124578Y-57938004D02*
X47076959Y-57961814D01*
X47076959Y-57961814D02*
X46886483Y-57961814D01*
X47576959Y-58176100D02*
X47529340Y-58199909D01*
X47529340Y-58199909D02*
X47434102Y-58199909D01*
X47434102Y-58199909D02*
X47386483Y-58176100D01*
X47386483Y-58176100D02*
X47362674Y-58128480D01*
X47362674Y-58128480D02*
X47362674Y-57938004D01*
X47362674Y-57938004D02*
X47386483Y-57890385D01*
X47386483Y-57890385D02*
X47434102Y-57866576D01*
X47434102Y-57866576D02*
X47529340Y-57866576D01*
X47529340Y-57866576D02*
X47576959Y-57890385D01*
X47576959Y-57890385D02*
X47600769Y-57938004D01*
X47600769Y-57938004D02*
X47600769Y-57985623D01*
X47600769Y-57985623D02*
X47362674Y-58033242D01*
X48029340Y-58199909D02*
X48029340Y-57699909D01*
X48029340Y-58176100D02*
X47981721Y-58199909D01*
X47981721Y-58199909D02*
X47886483Y-58199909D01*
X47886483Y-58199909D02*
X47838864Y-58176100D01*
X47838864Y-58176100D02*
X47815054Y-58152290D01*
X47815054Y-58152290D02*
X47791245Y-58104671D01*
X47791245Y-58104671D02*
X47791245Y-57961814D01*
X47791245Y-57961814D02*
X47815054Y-57914195D01*
X47815054Y-57914195D02*
X47838864Y-57890385D01*
X47838864Y-57890385D02*
X47886483Y-57866576D01*
X47886483Y-57866576D02*
X47981721Y-57866576D01*
X47981721Y-57866576D02*
X48029340Y-57890385D01*
X103426883Y-61006633D02*
X103807836Y-61006633D01*
X103617359Y-61197109D02*
X103617359Y-60816157D01*
X104284026Y-60697109D02*
X104045931Y-60697109D01*
X104045931Y-60697109D02*
X104022122Y-60935204D01*
X104022122Y-60935204D02*
X104045931Y-60911395D01*
X104045931Y-60911395D02*
X104093550Y-60887585D01*
X104093550Y-60887585D02*
X104212598Y-60887585D01*
X104212598Y-60887585D02*
X104260217Y-60911395D01*
X104260217Y-60911395D02*
X104284026Y-60935204D01*
X104284026Y-60935204D02*
X104307836Y-60982823D01*
X104307836Y-60982823D02*
X104307836Y-61101871D01*
X104307836Y-61101871D02*
X104284026Y-61149490D01*
X104284026Y-61149490D02*
X104260217Y-61173300D01*
X104260217Y-61173300D02*
X104212598Y-61197109D01*
X104212598Y-61197109D02*
X104093550Y-61197109D01*
X104093550Y-61197109D02*
X104045931Y-61173300D01*
X104045931Y-61173300D02*
X104022122Y-61149490D01*
X47199188Y-60263719D02*
X47151569Y-60239909D01*
X47151569Y-60239909D02*
X47080140Y-60239909D01*
X47080140Y-60239909D02*
X47008712Y-60263719D01*
X47008712Y-60263719D02*
X46961093Y-60311338D01*
X46961093Y-60311338D02*
X46937283Y-60358957D01*
X46937283Y-60358957D02*
X46913474Y-60454195D01*
X46913474Y-60454195D02*
X46913474Y-60525623D01*
X46913474Y-60525623D02*
X46937283Y-60620861D01*
X46937283Y-60620861D02*
X46961093Y-60668480D01*
X46961093Y-60668480D02*
X47008712Y-60716100D01*
X47008712Y-60716100D02*
X47080140Y-60739909D01*
X47080140Y-60739909D02*
X47127759Y-60739909D01*
X47127759Y-60739909D02*
X47199188Y-60716100D01*
X47199188Y-60716100D02*
X47222997Y-60692290D01*
X47222997Y-60692290D02*
X47222997Y-60525623D01*
X47222997Y-60525623D02*
X47127759Y-60525623D01*
X47437283Y-60739909D02*
X47437283Y-60406576D01*
X47437283Y-60501814D02*
X47461093Y-60454195D01*
X47461093Y-60454195D02*
X47484902Y-60430385D01*
X47484902Y-60430385D02*
X47532521Y-60406576D01*
X47532521Y-60406576D02*
X47580140Y-60406576D01*
X47937283Y-60716100D02*
X47889664Y-60739909D01*
X47889664Y-60739909D02*
X47794426Y-60739909D01*
X47794426Y-60739909D02*
X47746807Y-60716100D01*
X47746807Y-60716100D02*
X47722998Y-60668480D01*
X47722998Y-60668480D02*
X47722998Y-60478004D01*
X47722998Y-60478004D02*
X47746807Y-60430385D01*
X47746807Y-60430385D02*
X47794426Y-60406576D01*
X47794426Y-60406576D02*
X47889664Y-60406576D01*
X47889664Y-60406576D02*
X47937283Y-60430385D01*
X47937283Y-60430385D02*
X47961093Y-60478004D01*
X47961093Y-60478004D02*
X47961093Y-60525623D01*
X47961093Y-60525623D02*
X47722998Y-60573242D01*
X48365854Y-60716100D02*
X48318235Y-60739909D01*
X48318235Y-60739909D02*
X48222997Y-60739909D01*
X48222997Y-60739909D02*
X48175378Y-60716100D01*
X48175378Y-60716100D02*
X48151569Y-60668480D01*
X48151569Y-60668480D02*
X48151569Y-60478004D01*
X48151569Y-60478004D02*
X48175378Y-60430385D01*
X48175378Y-60430385D02*
X48222997Y-60406576D01*
X48222997Y-60406576D02*
X48318235Y-60406576D01*
X48318235Y-60406576D02*
X48365854Y-60430385D01*
X48365854Y-60430385D02*
X48389664Y-60478004D01*
X48389664Y-60478004D02*
X48389664Y-60525623D01*
X48389664Y-60525623D02*
X48151569Y-60573242D01*
X48603949Y-60406576D02*
X48603949Y-60739909D01*
X48603949Y-60454195D02*
X48627759Y-60430385D01*
X48627759Y-60430385D02*
X48675378Y-60406576D01*
X48675378Y-60406576D02*
X48746806Y-60406576D01*
X48746806Y-60406576D02*
X48794425Y-60430385D01*
X48794425Y-60430385D02*
X48818235Y-60478004D01*
X48818235Y-60478004D02*
X48818235Y-60739909D01*
X103403074Y-54315300D02*
X103474502Y-54339109D01*
X103474502Y-54339109D02*
X103593550Y-54339109D01*
X103593550Y-54339109D02*
X103641169Y-54315300D01*
X103641169Y-54315300D02*
X103664978Y-54291490D01*
X103664978Y-54291490D02*
X103688788Y-54243871D01*
X103688788Y-54243871D02*
X103688788Y-54196252D01*
X103688788Y-54196252D02*
X103664978Y-54148633D01*
X103664978Y-54148633D02*
X103641169Y-54124823D01*
X103641169Y-54124823D02*
X103593550Y-54101014D01*
X103593550Y-54101014D02*
X103498312Y-54077204D01*
X103498312Y-54077204D02*
X103450693Y-54053395D01*
X103450693Y-54053395D02*
X103426883Y-54029585D01*
X103426883Y-54029585D02*
X103403074Y-53981966D01*
X103403074Y-53981966D02*
X103403074Y-53934347D01*
X103403074Y-53934347D02*
X103426883Y-53886728D01*
X103426883Y-53886728D02*
X103450693Y-53862919D01*
X103450693Y-53862919D02*
X103498312Y-53839109D01*
X103498312Y-53839109D02*
X103617359Y-53839109D01*
X103617359Y-53839109D02*
X103688788Y-53862919D01*
X103831645Y-53839109D02*
X104117359Y-53839109D01*
X103974502Y-54339109D02*
X103974502Y-53839109D01*
X104284025Y-54339109D02*
X104284025Y-53839109D01*
X104284025Y-53839109D02*
X104474501Y-53839109D01*
X104474501Y-53839109D02*
X104522120Y-53862919D01*
X104522120Y-53862919D02*
X104545930Y-53886728D01*
X104545930Y-53886728D02*
X104569739Y-53934347D01*
X104569739Y-53934347D02*
X104569739Y-54005776D01*
X104569739Y-54005776D02*
X104545930Y-54053395D01*
X104545930Y-54053395D02*
X104522120Y-54077204D01*
X104522120Y-54077204D02*
X104474501Y-54101014D01*
X104474501Y-54101014D02*
X104284025Y-54101014D01*
X93317683Y-46325433D02*
X93698636Y-46325433D01*
X93508159Y-46515909D02*
X93508159Y-46134957D01*
X93889112Y-46015909D02*
X94198636Y-46015909D01*
X94198636Y-46015909D02*
X94031969Y-46206385D01*
X94031969Y-46206385D02*
X94103398Y-46206385D01*
X94103398Y-46206385D02*
X94151017Y-46230195D01*
X94151017Y-46230195D02*
X94174826Y-46254004D01*
X94174826Y-46254004D02*
X94198636Y-46301623D01*
X94198636Y-46301623D02*
X94198636Y-46420671D01*
X94198636Y-46420671D02*
X94174826Y-46468290D01*
X94174826Y-46468290D02*
X94151017Y-46492100D01*
X94151017Y-46492100D02*
X94103398Y-46515909D01*
X94103398Y-46515909D02*
X93960541Y-46515909D01*
X93960541Y-46515909D02*
X93912922Y-46492100D01*
X93912922Y-46492100D02*
X93889112Y-46468290D01*
X94341493Y-46015909D02*
X94508159Y-46515909D01*
X94508159Y-46515909D02*
X94674826Y-46015909D01*
X94793873Y-46015909D02*
X95103397Y-46015909D01*
X95103397Y-46015909D02*
X94936730Y-46206385D01*
X94936730Y-46206385D02*
X95008159Y-46206385D01*
X95008159Y-46206385D02*
X95055778Y-46230195D01*
X95055778Y-46230195D02*
X95079587Y-46254004D01*
X95079587Y-46254004D02*
X95103397Y-46301623D01*
X95103397Y-46301623D02*
X95103397Y-46420671D01*
X95103397Y-46420671D02*
X95079587Y-46468290D01*
X95079587Y-46468290D02*
X95055778Y-46492100D01*
X95055778Y-46492100D02*
X95008159Y-46515909D01*
X95008159Y-46515909D02*
X94865302Y-46515909D01*
X94865302Y-46515909D02*
X94817683Y-46492100D01*
X94817683Y-46492100D02*
X94793873Y-46468290D01*
X47357950Y-55448804D02*
X47429378Y-55472614D01*
X47429378Y-55472614D02*
X47453188Y-55496423D01*
X47453188Y-55496423D02*
X47476997Y-55544042D01*
X47476997Y-55544042D02*
X47476997Y-55615471D01*
X47476997Y-55615471D02*
X47453188Y-55663090D01*
X47453188Y-55663090D02*
X47429378Y-55686900D01*
X47429378Y-55686900D02*
X47381759Y-55710709D01*
X47381759Y-55710709D02*
X47191283Y-55710709D01*
X47191283Y-55710709D02*
X47191283Y-55210709D01*
X47191283Y-55210709D02*
X47357950Y-55210709D01*
X47357950Y-55210709D02*
X47405569Y-55234519D01*
X47405569Y-55234519D02*
X47429378Y-55258328D01*
X47429378Y-55258328D02*
X47453188Y-55305947D01*
X47453188Y-55305947D02*
X47453188Y-55353566D01*
X47453188Y-55353566D02*
X47429378Y-55401185D01*
X47429378Y-55401185D02*
X47405569Y-55424995D01*
X47405569Y-55424995D02*
X47357950Y-55448804D01*
X47357950Y-55448804D02*
X47191283Y-55448804D01*
X47762712Y-55710709D02*
X47715093Y-55686900D01*
X47715093Y-55686900D02*
X47691283Y-55639280D01*
X47691283Y-55639280D02*
X47691283Y-55210709D01*
X48167474Y-55377376D02*
X48167474Y-55710709D01*
X47953188Y-55377376D02*
X47953188Y-55639280D01*
X47953188Y-55639280D02*
X47976998Y-55686900D01*
X47976998Y-55686900D02*
X48024617Y-55710709D01*
X48024617Y-55710709D02*
X48096045Y-55710709D01*
X48096045Y-55710709D02*
X48143664Y-55686900D01*
X48143664Y-55686900D02*
X48167474Y-55663090D01*
X48596045Y-55686900D02*
X48548426Y-55710709D01*
X48548426Y-55710709D02*
X48453188Y-55710709D01*
X48453188Y-55710709D02*
X48405569Y-55686900D01*
X48405569Y-55686900D02*
X48381760Y-55639280D01*
X48381760Y-55639280D02*
X48381760Y-55448804D01*
X48381760Y-55448804D02*
X48405569Y-55401185D01*
X48405569Y-55401185D02*
X48453188Y-55377376D01*
X48453188Y-55377376D02*
X48548426Y-55377376D01*
X48548426Y-55377376D02*
X48596045Y-55401185D01*
X48596045Y-55401185D02*
X48619855Y-55448804D01*
X48619855Y-55448804D02*
X48619855Y-55496423D01*
X48619855Y-55496423D02*
X48381760Y-55544042D01*
X47307150Y-62865604D02*
X47378578Y-62889414D01*
X47378578Y-62889414D02*
X47402388Y-62913223D01*
X47402388Y-62913223D02*
X47426197Y-62960842D01*
X47426197Y-62960842D02*
X47426197Y-63032271D01*
X47426197Y-63032271D02*
X47402388Y-63079890D01*
X47402388Y-63079890D02*
X47378578Y-63103700D01*
X47378578Y-63103700D02*
X47330959Y-63127509D01*
X47330959Y-63127509D02*
X47140483Y-63127509D01*
X47140483Y-63127509D02*
X47140483Y-62627509D01*
X47140483Y-62627509D02*
X47307150Y-62627509D01*
X47307150Y-62627509D02*
X47354769Y-62651319D01*
X47354769Y-62651319D02*
X47378578Y-62675128D01*
X47378578Y-62675128D02*
X47402388Y-62722747D01*
X47402388Y-62722747D02*
X47402388Y-62770366D01*
X47402388Y-62770366D02*
X47378578Y-62817985D01*
X47378578Y-62817985D02*
X47354769Y-62841795D01*
X47354769Y-62841795D02*
X47307150Y-62865604D01*
X47307150Y-62865604D02*
X47140483Y-62865604D01*
X47711912Y-63127509D02*
X47664293Y-63103700D01*
X47664293Y-63103700D02*
X47640483Y-63056080D01*
X47640483Y-63056080D02*
X47640483Y-62627509D01*
X48116674Y-63127509D02*
X48116674Y-62865604D01*
X48116674Y-62865604D02*
X48092864Y-62817985D01*
X48092864Y-62817985D02*
X48045245Y-62794176D01*
X48045245Y-62794176D02*
X47950007Y-62794176D01*
X47950007Y-62794176D02*
X47902388Y-62817985D01*
X48116674Y-63103700D02*
X48069055Y-63127509D01*
X48069055Y-63127509D02*
X47950007Y-63127509D01*
X47950007Y-63127509D02*
X47902388Y-63103700D01*
X47902388Y-63103700D02*
X47878579Y-63056080D01*
X47878579Y-63056080D02*
X47878579Y-63008461D01*
X47878579Y-63008461D02*
X47902388Y-62960842D01*
X47902388Y-62960842D02*
X47950007Y-62937033D01*
X47950007Y-62937033D02*
X48069055Y-62937033D01*
X48069055Y-62937033D02*
X48116674Y-62913223D01*
X48569055Y-63103700D02*
X48521436Y-63127509D01*
X48521436Y-63127509D02*
X48426198Y-63127509D01*
X48426198Y-63127509D02*
X48378579Y-63103700D01*
X48378579Y-63103700D02*
X48354769Y-63079890D01*
X48354769Y-63079890D02*
X48330960Y-63032271D01*
X48330960Y-63032271D02*
X48330960Y-62889414D01*
X48330960Y-62889414D02*
X48354769Y-62841795D01*
X48354769Y-62841795D02*
X48378579Y-62817985D01*
X48378579Y-62817985D02*
X48426198Y-62794176D01*
X48426198Y-62794176D02*
X48521436Y-62794176D01*
X48521436Y-62794176D02*
X48569055Y-62817985D01*
X48783340Y-63127509D02*
X48783340Y-62627509D01*
X48830959Y-62937033D02*
X48973816Y-63127509D01*
X48973816Y-62794176D02*
X48783340Y-62984652D01*
X93731988Y-49849719D02*
X93684369Y-49825909D01*
X93684369Y-49825909D02*
X93612940Y-49825909D01*
X93612940Y-49825909D02*
X93541512Y-49849719D01*
X93541512Y-49849719D02*
X93493893Y-49897338D01*
X93493893Y-49897338D02*
X93470083Y-49944957D01*
X93470083Y-49944957D02*
X93446274Y-50040195D01*
X93446274Y-50040195D02*
X93446274Y-50111623D01*
X93446274Y-50111623D02*
X93470083Y-50206861D01*
X93470083Y-50206861D02*
X93493893Y-50254480D01*
X93493893Y-50254480D02*
X93541512Y-50302100D01*
X93541512Y-50302100D02*
X93612940Y-50325909D01*
X93612940Y-50325909D02*
X93660559Y-50325909D01*
X93660559Y-50325909D02*
X93731988Y-50302100D01*
X93731988Y-50302100D02*
X93755797Y-50278290D01*
X93755797Y-50278290D02*
X93755797Y-50111623D01*
X93755797Y-50111623D02*
X93660559Y-50111623D01*
X93970083Y-50325909D02*
X93970083Y-49825909D01*
X93970083Y-49825909D02*
X94255797Y-50325909D01*
X94255797Y-50325909D02*
X94255797Y-49825909D01*
X94493893Y-50325909D02*
X94493893Y-49825909D01*
X94493893Y-49825909D02*
X94612941Y-49825909D01*
X94612941Y-49825909D02*
X94684369Y-49849719D01*
X94684369Y-49849719D02*
X94731988Y-49897338D01*
X94731988Y-49897338D02*
X94755798Y-49944957D01*
X94755798Y-49944957D02*
X94779607Y-50040195D01*
X94779607Y-50040195D02*
X94779607Y-50111623D01*
X94779607Y-50111623D02*
X94755798Y-50206861D01*
X94755798Y-50206861D02*
X94731988Y-50254480D01*
X94731988Y-50254480D02*
X94684369Y-50302100D01*
X94684369Y-50302100D02*
X94612941Y-50325909D01*
X94612941Y-50325909D02*
X94493893Y-50325909D01*
X47300788Y-43601319D02*
X47253169Y-43577509D01*
X47253169Y-43577509D02*
X47181740Y-43577509D01*
X47181740Y-43577509D02*
X47110312Y-43601319D01*
X47110312Y-43601319D02*
X47062693Y-43648938D01*
X47062693Y-43648938D02*
X47038883Y-43696557D01*
X47038883Y-43696557D02*
X47015074Y-43791795D01*
X47015074Y-43791795D02*
X47015074Y-43863223D01*
X47015074Y-43863223D02*
X47038883Y-43958461D01*
X47038883Y-43958461D02*
X47062693Y-44006080D01*
X47062693Y-44006080D02*
X47110312Y-44053700D01*
X47110312Y-44053700D02*
X47181740Y-44077509D01*
X47181740Y-44077509D02*
X47229359Y-44077509D01*
X47229359Y-44077509D02*
X47300788Y-44053700D01*
X47300788Y-44053700D02*
X47324597Y-44029890D01*
X47324597Y-44029890D02*
X47324597Y-43863223D01*
X47324597Y-43863223D02*
X47229359Y-43863223D01*
X47538883Y-44077509D02*
X47538883Y-43577509D01*
X47538883Y-43577509D02*
X47824597Y-44077509D01*
X47824597Y-44077509D02*
X47824597Y-43577509D01*
X48062693Y-44077509D02*
X48062693Y-43577509D01*
X48062693Y-43577509D02*
X48181741Y-43577509D01*
X48181741Y-43577509D02*
X48253169Y-43601319D01*
X48253169Y-43601319D02*
X48300788Y-43648938D01*
X48300788Y-43648938D02*
X48324598Y-43696557D01*
X48324598Y-43696557D02*
X48348407Y-43791795D01*
X48348407Y-43791795D02*
X48348407Y-43863223D01*
X48348407Y-43863223D02*
X48324598Y-43958461D01*
X48324598Y-43958461D02*
X48300788Y-44006080D01*
X48300788Y-44006080D02*
X48253169Y-44053700D01*
X48253169Y-44053700D02*
X48181741Y-44077509D01*
X48181741Y-44077509D02*
X48062693Y-44077509D01*
D12*
X68294625Y-73454657D02*
X68151768Y-73383228D01*
X68151768Y-73383228D02*
X67937482Y-73383228D01*
X67937482Y-73383228D02*
X67723196Y-73454657D01*
X67723196Y-73454657D02*
X67580339Y-73597514D01*
X67580339Y-73597514D02*
X67508910Y-73740371D01*
X67508910Y-73740371D02*
X67437482Y-74026085D01*
X67437482Y-74026085D02*
X67437482Y-74240371D01*
X67437482Y-74240371D02*
X67508910Y-74526085D01*
X67508910Y-74526085D02*
X67580339Y-74668942D01*
X67580339Y-74668942D02*
X67723196Y-74811800D01*
X67723196Y-74811800D02*
X67937482Y-74883228D01*
X67937482Y-74883228D02*
X68080339Y-74883228D01*
X68080339Y-74883228D02*
X68294625Y-74811800D01*
X68294625Y-74811800D02*
X68366053Y-74740371D01*
X68366053Y-74740371D02*
X68366053Y-74240371D01*
X68366053Y-74240371D02*
X68080339Y-74240371D01*
X69008910Y-74883228D02*
X69008910Y-73883228D01*
X69008910Y-74168942D02*
X69080339Y-74026085D01*
X69080339Y-74026085D02*
X69151768Y-73954657D01*
X69151768Y-73954657D02*
X69294625Y-73883228D01*
X69294625Y-73883228D02*
X69437482Y-73883228D01*
X70151767Y-74883228D02*
X70008910Y-74811800D01*
X70008910Y-74811800D02*
X69937481Y-74740371D01*
X69937481Y-74740371D02*
X69866053Y-74597514D01*
X69866053Y-74597514D02*
X69866053Y-74168942D01*
X69866053Y-74168942D02*
X69937481Y-74026085D01*
X69937481Y-74026085D02*
X70008910Y-73954657D01*
X70008910Y-73954657D02*
X70151767Y-73883228D01*
X70151767Y-73883228D02*
X70366053Y-73883228D01*
X70366053Y-73883228D02*
X70508910Y-73954657D01*
X70508910Y-73954657D02*
X70580339Y-74026085D01*
X70580339Y-74026085D02*
X70651767Y-74168942D01*
X70651767Y-74168942D02*
X70651767Y-74597514D01*
X70651767Y-74597514D02*
X70580339Y-74740371D01*
X70580339Y-74740371D02*
X70508910Y-74811800D01*
X70508910Y-74811800D02*
X70366053Y-74883228D01*
X70366053Y-74883228D02*
X70151767Y-74883228D01*
X71937482Y-73883228D02*
X71937482Y-74883228D01*
X71294624Y-73883228D02*
X71294624Y-74668942D01*
X71294624Y-74668942D02*
X71366053Y-74811800D01*
X71366053Y-74811800D02*
X71508910Y-74883228D01*
X71508910Y-74883228D02*
X71723196Y-74883228D01*
X71723196Y-74883228D02*
X71866053Y-74811800D01*
X71866053Y-74811800D02*
X71937482Y-74740371D01*
X72651767Y-73883228D02*
X72651767Y-75383228D01*
X72651767Y-73954657D02*
X72794625Y-73883228D01*
X72794625Y-73883228D02*
X73080339Y-73883228D01*
X73080339Y-73883228D02*
X73223196Y-73954657D01*
X73223196Y-73954657D02*
X73294625Y-74026085D01*
X73294625Y-74026085D02*
X73366053Y-74168942D01*
X73366053Y-74168942D02*
X73366053Y-74597514D01*
X73366053Y-74597514D02*
X73294625Y-74740371D01*
X73294625Y-74740371D02*
X73223196Y-74811800D01*
X73223196Y-74811800D02*
X73080339Y-74883228D01*
X73080339Y-74883228D02*
X72794625Y-74883228D01*
X72794625Y-74883228D02*
X72651767Y-74811800D01*
X75008910Y-73383228D02*
X75937482Y-73383228D01*
X75937482Y-73383228D02*
X75437482Y-73954657D01*
X75437482Y-73954657D02*
X75651767Y-73954657D01*
X75651767Y-73954657D02*
X75794625Y-74026085D01*
X75794625Y-74026085D02*
X75866053Y-74097514D01*
X75866053Y-74097514D02*
X75937482Y-74240371D01*
X75937482Y-74240371D02*
X75937482Y-74597514D01*
X75937482Y-74597514D02*
X75866053Y-74740371D01*
X75866053Y-74740371D02*
X75794625Y-74811800D01*
X75794625Y-74811800D02*
X75651767Y-74883228D01*
X75651767Y-74883228D02*
X75223196Y-74883228D01*
X75223196Y-74883228D02*
X75080339Y-74811800D01*
X75080339Y-74811800D02*
X75008910Y-74740371D01*
X76866053Y-73383228D02*
X77008910Y-73383228D01*
X77008910Y-73383228D02*
X77151767Y-73454657D01*
X77151767Y-73454657D02*
X77223196Y-73526085D01*
X77223196Y-73526085D02*
X77294624Y-73668942D01*
X77294624Y-73668942D02*
X77366053Y-73954657D01*
X77366053Y-73954657D02*
X77366053Y-74311800D01*
X77366053Y-74311800D02*
X77294624Y-74597514D01*
X77294624Y-74597514D02*
X77223196Y-74740371D01*
X77223196Y-74740371D02*
X77151767Y-74811800D01*
X77151767Y-74811800D02*
X77008910Y-74883228D01*
X77008910Y-74883228D02*
X76866053Y-74883228D01*
X76866053Y-74883228D02*
X76723196Y-74811800D01*
X76723196Y-74811800D02*
X76651767Y-74740371D01*
X76651767Y-74740371D02*
X76580338Y-74597514D01*
X76580338Y-74597514D02*
X76508910Y-74311800D01*
X76508910Y-74311800D02*
X76508910Y-73954657D01*
X76508910Y-73954657D02*
X76580338Y-73668942D01*
X76580338Y-73668942D02*
X76651767Y-73526085D01*
X76651767Y-73526085D02*
X76723196Y-73454657D01*
X76723196Y-73454657D02*
X76866053Y-73383228D01*
X79151766Y-74883228D02*
X79151766Y-73383228D01*
X79151766Y-73383228D02*
X79723195Y-73383228D01*
X79723195Y-73383228D02*
X79866052Y-73454657D01*
X79866052Y-73454657D02*
X79937481Y-73526085D01*
X79937481Y-73526085D02*
X80008909Y-73668942D01*
X80008909Y-73668942D02*
X80008909Y-73883228D01*
X80008909Y-73883228D02*
X79937481Y-74026085D01*
X79937481Y-74026085D02*
X79866052Y-74097514D01*
X79866052Y-74097514D02*
X79723195Y-74168942D01*
X79723195Y-74168942D02*
X79151766Y-74168942D01*
X81294624Y-74883228D02*
X81294624Y-74097514D01*
X81294624Y-74097514D02*
X81223195Y-73954657D01*
X81223195Y-73954657D02*
X81080338Y-73883228D01*
X81080338Y-73883228D02*
X80794624Y-73883228D01*
X80794624Y-73883228D02*
X80651766Y-73954657D01*
X81294624Y-74811800D02*
X81151766Y-74883228D01*
X81151766Y-74883228D02*
X80794624Y-74883228D01*
X80794624Y-74883228D02*
X80651766Y-74811800D01*
X80651766Y-74811800D02*
X80580338Y-74668942D01*
X80580338Y-74668942D02*
X80580338Y-74526085D01*
X80580338Y-74526085D02*
X80651766Y-74383228D01*
X80651766Y-74383228D02*
X80794624Y-74311800D01*
X80794624Y-74311800D02*
X81151766Y-74311800D01*
X81151766Y-74311800D02*
X81294624Y-74240371D01*
X81866052Y-73883228D02*
X82151767Y-74883228D01*
X82151767Y-74883228D02*
X82437481Y-74168942D01*
X82437481Y-74168942D02*
X82723195Y-74883228D01*
X82723195Y-74883228D02*
X83008909Y-73883228D01*
X84080338Y-74097514D02*
X83580338Y-74097514D01*
X83580338Y-74883228D02*
X83580338Y-73383228D01*
X83580338Y-73383228D02*
X84294624Y-73383228D01*
X85437481Y-74811800D02*
X85294624Y-74883228D01*
X85294624Y-74883228D02*
X85008910Y-74883228D01*
X85008910Y-74883228D02*
X84866052Y-74811800D01*
X84866052Y-74811800D02*
X84794624Y-74668942D01*
X84794624Y-74668942D02*
X84794624Y-74097514D01*
X84794624Y-74097514D02*
X84866052Y-73954657D01*
X84866052Y-73954657D02*
X85008910Y-73883228D01*
X85008910Y-73883228D02*
X85294624Y-73883228D01*
X85294624Y-73883228D02*
X85437481Y-73954657D01*
X85437481Y-73954657D02*
X85508910Y-74097514D01*
X85508910Y-74097514D02*
X85508910Y-74240371D01*
X85508910Y-74240371D02*
X84794624Y-74383228D01*
X86794624Y-74883228D02*
X86794624Y-74097514D01*
X86794624Y-74097514D02*
X86723195Y-73954657D01*
X86723195Y-73954657D02*
X86580338Y-73883228D01*
X86580338Y-73883228D02*
X86294624Y-73883228D01*
X86294624Y-73883228D02*
X86151766Y-73954657D01*
X86794624Y-74811800D02*
X86651766Y-74883228D01*
X86651766Y-74883228D02*
X86294624Y-74883228D01*
X86294624Y-74883228D02*
X86151766Y-74811800D01*
X86151766Y-74811800D02*
X86080338Y-74668942D01*
X86080338Y-74668942D02*
X86080338Y-74526085D01*
X86080338Y-74526085D02*
X86151766Y-74383228D01*
X86151766Y-74383228D02*
X86294624Y-74311800D01*
X86294624Y-74311800D02*
X86651766Y-74311800D01*
X86651766Y-74311800D02*
X86794624Y-74240371D01*
X87437481Y-74811800D02*
X87580338Y-74883228D01*
X87580338Y-74883228D02*
X87866052Y-74883228D01*
X87866052Y-74883228D02*
X88008909Y-74811800D01*
X88008909Y-74811800D02*
X88080338Y-74668942D01*
X88080338Y-74668942D02*
X88080338Y-74597514D01*
X88080338Y-74597514D02*
X88008909Y-74454657D01*
X88008909Y-74454657D02*
X87866052Y-74383228D01*
X87866052Y-74383228D02*
X87651767Y-74383228D01*
X87651767Y-74383228D02*
X87508909Y-74311800D01*
X87508909Y-74311800D02*
X87437481Y-74168942D01*
X87437481Y-74168942D02*
X87437481Y-74097514D01*
X87437481Y-74097514D02*
X87508909Y-73954657D01*
X87508909Y-73954657D02*
X87651767Y-73883228D01*
X87651767Y-73883228D02*
X87866052Y-73883228D01*
X87866052Y-73883228D02*
X88008909Y-73954657D01*
X88508910Y-73883228D02*
X89080338Y-73883228D01*
X88723195Y-73383228D02*
X88723195Y-74668942D01*
X88723195Y-74668942D02*
X88794624Y-74811800D01*
X88794624Y-74811800D02*
X88937481Y-74883228D01*
X88937481Y-74883228D02*
X89080338Y-74883228D01*
X90723195Y-74883228D02*
X90723195Y-73383228D01*
X90723195Y-73383228D02*
X91223195Y-74454657D01*
X91223195Y-74454657D02*
X91723195Y-73383228D01*
X91723195Y-73383228D02*
X91723195Y-74883228D01*
X92651767Y-74883228D02*
X92508910Y-74811800D01*
X92508910Y-74811800D02*
X92437481Y-74740371D01*
X92437481Y-74740371D02*
X92366053Y-74597514D01*
X92366053Y-74597514D02*
X92366053Y-74168942D01*
X92366053Y-74168942D02*
X92437481Y-74026085D01*
X92437481Y-74026085D02*
X92508910Y-73954657D01*
X92508910Y-73954657D02*
X92651767Y-73883228D01*
X92651767Y-73883228D02*
X92866053Y-73883228D01*
X92866053Y-73883228D02*
X93008910Y-73954657D01*
X93008910Y-73954657D02*
X93080339Y-74026085D01*
X93080339Y-74026085D02*
X93151767Y-74168942D01*
X93151767Y-74168942D02*
X93151767Y-74597514D01*
X93151767Y-74597514D02*
X93080339Y-74740371D01*
X93080339Y-74740371D02*
X93008910Y-74811800D01*
X93008910Y-74811800D02*
X92866053Y-74883228D01*
X92866053Y-74883228D02*
X92651767Y-74883228D01*
X93580339Y-73883228D02*
X94151767Y-73883228D01*
X93794624Y-73383228D02*
X93794624Y-74668942D01*
X93794624Y-74668942D02*
X93866053Y-74811800D01*
X93866053Y-74811800D02*
X94008910Y-74883228D01*
X94008910Y-74883228D02*
X94151767Y-74883228D01*
X94866053Y-74883228D02*
X94723196Y-74811800D01*
X94723196Y-74811800D02*
X94651767Y-74740371D01*
X94651767Y-74740371D02*
X94580339Y-74597514D01*
X94580339Y-74597514D02*
X94580339Y-74168942D01*
X94580339Y-74168942D02*
X94651767Y-74026085D01*
X94651767Y-74026085D02*
X94723196Y-73954657D01*
X94723196Y-73954657D02*
X94866053Y-73883228D01*
X94866053Y-73883228D02*
X95080339Y-73883228D01*
X95080339Y-73883228D02*
X95223196Y-73954657D01*
X95223196Y-73954657D02*
X95294625Y-74026085D01*
X95294625Y-74026085D02*
X95366053Y-74168942D01*
X95366053Y-74168942D02*
X95366053Y-74597514D01*
X95366053Y-74597514D02*
X95294625Y-74740371D01*
X95294625Y-74740371D02*
X95223196Y-74811800D01*
X95223196Y-74811800D02*
X95080339Y-74883228D01*
X95080339Y-74883228D02*
X94866053Y-74883228D01*
X96008910Y-74883228D02*
X96008910Y-73883228D01*
X96008910Y-74168942D02*
X96080339Y-74026085D01*
X96080339Y-74026085D02*
X96151768Y-73954657D01*
X96151768Y-73954657D02*
X96294625Y-73883228D01*
X96294625Y-73883228D02*
X96437482Y-73883228D01*
X98580338Y-74097514D02*
X98794624Y-74168942D01*
X98794624Y-74168942D02*
X98866053Y-74240371D01*
X98866053Y-74240371D02*
X98937481Y-74383228D01*
X98937481Y-74383228D02*
X98937481Y-74597514D01*
X98937481Y-74597514D02*
X98866053Y-74740371D01*
X98866053Y-74740371D02*
X98794624Y-74811800D01*
X98794624Y-74811800D02*
X98651767Y-74883228D01*
X98651767Y-74883228D02*
X98080338Y-74883228D01*
X98080338Y-74883228D02*
X98080338Y-73383228D01*
X98080338Y-73383228D02*
X98580338Y-73383228D01*
X98580338Y-73383228D02*
X98723196Y-73454657D01*
X98723196Y-73454657D02*
X98794624Y-73526085D01*
X98794624Y-73526085D02*
X98866053Y-73668942D01*
X98866053Y-73668942D02*
X98866053Y-73811800D01*
X98866053Y-73811800D02*
X98794624Y-73954657D01*
X98794624Y-73954657D02*
X98723196Y-74026085D01*
X98723196Y-74026085D02*
X98580338Y-74097514D01*
X98580338Y-74097514D02*
X98080338Y-74097514D01*
X99794624Y-74883228D02*
X99651767Y-74811800D01*
X99651767Y-74811800D02*
X99580338Y-74740371D01*
X99580338Y-74740371D02*
X99508910Y-74597514D01*
X99508910Y-74597514D02*
X99508910Y-74168942D01*
X99508910Y-74168942D02*
X99580338Y-74026085D01*
X99580338Y-74026085D02*
X99651767Y-73954657D01*
X99651767Y-73954657D02*
X99794624Y-73883228D01*
X99794624Y-73883228D02*
X100008910Y-73883228D01*
X100008910Y-73883228D02*
X100151767Y-73954657D01*
X100151767Y-73954657D02*
X100223196Y-74026085D01*
X100223196Y-74026085D02*
X100294624Y-74168942D01*
X100294624Y-74168942D02*
X100294624Y-74597514D01*
X100294624Y-74597514D02*
X100223196Y-74740371D01*
X100223196Y-74740371D02*
X100151767Y-74811800D01*
X100151767Y-74811800D02*
X100008910Y-74883228D01*
X100008910Y-74883228D02*
X99794624Y-74883228D01*
X101580339Y-74883228D02*
X101580339Y-74097514D01*
X101580339Y-74097514D02*
X101508910Y-73954657D01*
X101508910Y-73954657D02*
X101366053Y-73883228D01*
X101366053Y-73883228D02*
X101080339Y-73883228D01*
X101080339Y-73883228D02*
X100937481Y-73954657D01*
X101580339Y-74811800D02*
X101437481Y-74883228D01*
X101437481Y-74883228D02*
X101080339Y-74883228D01*
X101080339Y-74883228D02*
X100937481Y-74811800D01*
X100937481Y-74811800D02*
X100866053Y-74668942D01*
X100866053Y-74668942D02*
X100866053Y-74526085D01*
X100866053Y-74526085D02*
X100937481Y-74383228D01*
X100937481Y-74383228D02*
X101080339Y-74311800D01*
X101080339Y-74311800D02*
X101437481Y-74311800D01*
X101437481Y-74311800D02*
X101580339Y-74240371D01*
X102294624Y-74883228D02*
X102294624Y-73883228D01*
X102294624Y-74168942D02*
X102366053Y-74026085D01*
X102366053Y-74026085D02*
X102437482Y-73954657D01*
X102437482Y-73954657D02*
X102580339Y-73883228D01*
X102580339Y-73883228D02*
X102723196Y-73883228D01*
X103866053Y-74883228D02*
X103866053Y-73383228D01*
X103866053Y-74811800D02*
X103723195Y-74883228D01*
X103723195Y-74883228D02*
X103437481Y-74883228D01*
X103437481Y-74883228D02*
X103294624Y-74811800D01*
X103294624Y-74811800D02*
X103223195Y-74740371D01*
X103223195Y-74740371D02*
X103151767Y-74597514D01*
X103151767Y-74597514D02*
X103151767Y-74168942D01*
X103151767Y-74168942D02*
X103223195Y-74026085D01*
X103223195Y-74026085D02*
X103294624Y-73954657D01*
X103294624Y-73954657D02*
X103437481Y-73883228D01*
X103437481Y-73883228D02*
X103723195Y-73883228D01*
X103723195Y-73883228D02*
X103866053Y-73954657D01*
D10*
X107323419Y-59866665D02*
X107323419Y-59247618D01*
X107323419Y-59247618D02*
X107704371Y-59580951D01*
X107704371Y-59580951D02*
X107704371Y-59438094D01*
X107704371Y-59438094D02*
X107751990Y-59342856D01*
X107751990Y-59342856D02*
X107799609Y-59295237D01*
X107799609Y-59295237D02*
X107894847Y-59247618D01*
X107894847Y-59247618D02*
X108132942Y-59247618D01*
X108132942Y-59247618D02*
X108228180Y-59295237D01*
X108228180Y-59295237D02*
X108275800Y-59342856D01*
X108275800Y-59342856D02*
X108323419Y-59438094D01*
X108323419Y-59438094D02*
X108323419Y-59723808D01*
X108323419Y-59723808D02*
X108275800Y-59819046D01*
X108275800Y-59819046D02*
X108228180Y-59866665D01*
X108323419Y-58295237D02*
X108323419Y-58866665D01*
X108323419Y-58580951D02*
X107323419Y-58580951D01*
X107323419Y-58580951D02*
X107466276Y-58676189D01*
X107466276Y-58676189D02*
X107561514Y-58771427D01*
X107561514Y-58771427D02*
X107609133Y-58866665D01*
X108228180Y-57866665D02*
X108275800Y-57819046D01*
X108275800Y-57819046D02*
X108323419Y-57866665D01*
X108323419Y-57866665D02*
X108275800Y-57914284D01*
X108275800Y-57914284D02*
X108228180Y-57866665D01*
X108228180Y-57866665D02*
X108323419Y-57866665D01*
X107751990Y-57247618D02*
X107704371Y-57342856D01*
X107704371Y-57342856D02*
X107656752Y-57390475D01*
X107656752Y-57390475D02*
X107561514Y-57438094D01*
X107561514Y-57438094D02*
X107513895Y-57438094D01*
X107513895Y-57438094D02*
X107418657Y-57390475D01*
X107418657Y-57390475D02*
X107371038Y-57342856D01*
X107371038Y-57342856D02*
X107323419Y-57247618D01*
X107323419Y-57247618D02*
X107323419Y-57057142D01*
X107323419Y-57057142D02*
X107371038Y-56961904D01*
X107371038Y-56961904D02*
X107418657Y-56914285D01*
X107418657Y-56914285D02*
X107513895Y-56866666D01*
X107513895Y-56866666D02*
X107561514Y-56866666D01*
X107561514Y-56866666D02*
X107656752Y-56914285D01*
X107656752Y-56914285D02*
X107704371Y-56961904D01*
X107704371Y-56961904D02*
X107751990Y-57057142D01*
X107751990Y-57057142D02*
X107751990Y-57247618D01*
X107751990Y-57247618D02*
X107799609Y-57342856D01*
X107799609Y-57342856D02*
X107847228Y-57390475D01*
X107847228Y-57390475D02*
X107942466Y-57438094D01*
X107942466Y-57438094D02*
X108132942Y-57438094D01*
X108132942Y-57438094D02*
X108228180Y-57390475D01*
X108228180Y-57390475D02*
X108275800Y-57342856D01*
X108275800Y-57342856D02*
X108323419Y-57247618D01*
X108323419Y-57247618D02*
X108323419Y-57057142D01*
X108323419Y-57057142D02*
X108275800Y-56961904D01*
X108275800Y-56961904D02*
X108228180Y-56914285D01*
X108228180Y-56914285D02*
X108132942Y-56866666D01*
X108132942Y-56866666D02*
X107942466Y-56866666D01*
X107942466Y-56866666D02*
X107847228Y-56914285D01*
X107847228Y-56914285D02*
X107799609Y-56961904D01*
X107799609Y-56961904D02*
X107751990Y-57057142D01*
X107323419Y-56247618D02*
X107323419Y-56152380D01*
X107323419Y-56152380D02*
X107371038Y-56057142D01*
X107371038Y-56057142D02*
X107418657Y-56009523D01*
X107418657Y-56009523D02*
X107513895Y-55961904D01*
X107513895Y-55961904D02*
X107704371Y-55914285D01*
X107704371Y-55914285D02*
X107942466Y-55914285D01*
X107942466Y-55914285D02*
X108132942Y-55961904D01*
X108132942Y-55961904D02*
X108228180Y-56009523D01*
X108228180Y-56009523D02*
X108275800Y-56057142D01*
X108275800Y-56057142D02*
X108323419Y-56152380D01*
X108323419Y-56152380D02*
X108323419Y-56247618D01*
X108323419Y-56247618D02*
X108275800Y-56342856D01*
X108275800Y-56342856D02*
X108228180Y-56390475D01*
X108228180Y-56390475D02*
X108132942Y-56438094D01*
X108132942Y-56438094D02*
X107942466Y-56485713D01*
X107942466Y-56485713D02*
X107704371Y-56485713D01*
X107704371Y-56485713D02*
X107513895Y-56438094D01*
X107513895Y-56438094D02*
X107418657Y-56390475D01*
X107418657Y-56390475D02*
X107371038Y-56342856D01*
X107371038Y-56342856D02*
X107323419Y-56247618D01*
X107323419Y-55295237D02*
X107323419Y-55199999D01*
X107323419Y-55199999D02*
X107371038Y-55104761D01*
X107371038Y-55104761D02*
X107418657Y-55057142D01*
X107418657Y-55057142D02*
X107513895Y-55009523D01*
X107513895Y-55009523D02*
X107704371Y-54961904D01*
X107704371Y-54961904D02*
X107942466Y-54961904D01*
X107942466Y-54961904D02*
X108132942Y-55009523D01*
X108132942Y-55009523D02*
X108228180Y-55057142D01*
X108228180Y-55057142D02*
X108275800Y-55104761D01*
X108275800Y-55104761D02*
X108323419Y-55199999D01*
X108323419Y-55199999D02*
X108323419Y-55295237D01*
X108323419Y-55295237D02*
X108275800Y-55390475D01*
X108275800Y-55390475D02*
X108228180Y-55438094D01*
X108228180Y-55438094D02*
X108132942Y-55485713D01*
X108132942Y-55485713D02*
X107942466Y-55533332D01*
X107942466Y-55533332D02*
X107704371Y-55533332D01*
X107704371Y-55533332D02*
X107513895Y-55485713D01*
X107513895Y-55485713D02*
X107418657Y-55438094D01*
X107418657Y-55438094D02*
X107371038Y-55390475D01*
X107371038Y-55390475D02*
X107323419Y-55295237D01*
X107323419Y-54342856D02*
X107323419Y-54247618D01*
X107323419Y-54247618D02*
X107371038Y-54152380D01*
X107371038Y-54152380D02*
X107418657Y-54104761D01*
X107418657Y-54104761D02*
X107513895Y-54057142D01*
X107513895Y-54057142D02*
X107704371Y-54009523D01*
X107704371Y-54009523D02*
X107942466Y-54009523D01*
X107942466Y-54009523D02*
X108132942Y-54057142D01*
X108132942Y-54057142D02*
X108228180Y-54104761D01*
X108228180Y-54104761D02*
X108275800Y-54152380D01*
X108275800Y-54152380D02*
X108323419Y-54247618D01*
X108323419Y-54247618D02*
X108323419Y-54342856D01*
X108323419Y-54342856D02*
X108275800Y-54438094D01*
X108275800Y-54438094D02*
X108228180Y-54485713D01*
X108228180Y-54485713D02*
X108132942Y-54533332D01*
X108132942Y-54533332D02*
X107942466Y-54580951D01*
X107942466Y-54580951D02*
X107704371Y-54580951D01*
X107704371Y-54580951D02*
X107513895Y-54533332D01*
X107513895Y-54533332D02*
X107418657Y-54485713D01*
X107418657Y-54485713D02*
X107371038Y-54438094D01*
X107371038Y-54438094D02*
X107323419Y-54342856D01*
X108323419Y-52819046D02*
X107656752Y-52819046D01*
X107751990Y-52819046D02*
X107704371Y-52771427D01*
X107704371Y-52771427D02*
X107656752Y-52676189D01*
X107656752Y-52676189D02*
X107656752Y-52533332D01*
X107656752Y-52533332D02*
X107704371Y-52438094D01*
X107704371Y-52438094D02*
X107799609Y-52390475D01*
X107799609Y-52390475D02*
X108323419Y-52390475D01*
X107799609Y-52390475D02*
X107704371Y-52342856D01*
X107704371Y-52342856D02*
X107656752Y-52247618D01*
X107656752Y-52247618D02*
X107656752Y-52104761D01*
X107656752Y-52104761D02*
X107704371Y-52009522D01*
X107704371Y-52009522D02*
X107799609Y-51961903D01*
X107799609Y-51961903D02*
X108323419Y-51961903D01*
X108323419Y-51485713D02*
X107656752Y-51485713D01*
X107751990Y-51485713D02*
X107704371Y-51438094D01*
X107704371Y-51438094D02*
X107656752Y-51342856D01*
X107656752Y-51342856D02*
X107656752Y-51199999D01*
X107656752Y-51199999D02*
X107704371Y-51104761D01*
X107704371Y-51104761D02*
X107799609Y-51057142D01*
X107799609Y-51057142D02*
X108323419Y-51057142D01*
X107799609Y-51057142D02*
X107704371Y-51009523D01*
X107704371Y-51009523D02*
X107656752Y-50914285D01*
X107656752Y-50914285D02*
X107656752Y-50771428D01*
X107656752Y-50771428D02*
X107704371Y-50676189D01*
X107704371Y-50676189D02*
X107799609Y-50628570D01*
X107799609Y-50628570D02*
X108323419Y-50628570D01*
X100600000Y-39300000D02*
X109552420Y-39300000D01*
X100600000Y-71100000D02*
X109552420Y-71100000D01*
X108966000Y-39300000D02*
X108966000Y-71100000D01*
X108966000Y-39300000D02*
X108966000Y-71100000D01*
X108966000Y-39300000D02*
X109552421Y-40426504D01*
X108966000Y-39300000D02*
X108379579Y-40426504D01*
X108966000Y-71100000D02*
X108379579Y-69973496D01*
X108966000Y-71100000D02*
X109552421Y-69973496D01*
X72007143Y-28865952D02*
X72007143Y-29532619D01*
X71769048Y-28485000D02*
X71530953Y-29199285D01*
X71530953Y-29199285D02*
X72150000Y-29199285D01*
X72435715Y-28532619D02*
X73102381Y-28532619D01*
X73102381Y-28532619D02*
X72673810Y-29532619D01*
X73483334Y-29437380D02*
X73530953Y-29485000D01*
X73530953Y-29485000D02*
X73483334Y-29532619D01*
X73483334Y-29532619D02*
X73435715Y-29485000D01*
X73435715Y-29485000D02*
X73483334Y-29437380D01*
X73483334Y-29437380D02*
X73483334Y-29532619D01*
X74007143Y-29532619D02*
X74197619Y-29532619D01*
X74197619Y-29532619D02*
X74292857Y-29485000D01*
X74292857Y-29485000D02*
X74340476Y-29437380D01*
X74340476Y-29437380D02*
X74435714Y-29294523D01*
X74435714Y-29294523D02*
X74483333Y-29104047D01*
X74483333Y-29104047D02*
X74483333Y-28723095D01*
X74483333Y-28723095D02*
X74435714Y-28627857D01*
X74435714Y-28627857D02*
X74388095Y-28580238D01*
X74388095Y-28580238D02*
X74292857Y-28532619D01*
X74292857Y-28532619D02*
X74102381Y-28532619D01*
X74102381Y-28532619D02*
X74007143Y-28580238D01*
X74007143Y-28580238D02*
X73959524Y-28627857D01*
X73959524Y-28627857D02*
X73911905Y-28723095D01*
X73911905Y-28723095D02*
X73911905Y-28961190D01*
X73911905Y-28961190D02*
X73959524Y-29056428D01*
X73959524Y-29056428D02*
X74007143Y-29104047D01*
X74007143Y-29104047D02*
X74102381Y-29151666D01*
X74102381Y-29151666D02*
X74292857Y-29151666D01*
X74292857Y-29151666D02*
X74388095Y-29104047D01*
X74388095Y-29104047D02*
X74435714Y-29056428D01*
X74435714Y-29056428D02*
X74483333Y-28961190D01*
X75102381Y-28532619D02*
X75197619Y-28532619D01*
X75197619Y-28532619D02*
X75292857Y-28580238D01*
X75292857Y-28580238D02*
X75340476Y-28627857D01*
X75340476Y-28627857D02*
X75388095Y-28723095D01*
X75388095Y-28723095D02*
X75435714Y-28913571D01*
X75435714Y-28913571D02*
X75435714Y-29151666D01*
X75435714Y-29151666D02*
X75388095Y-29342142D01*
X75388095Y-29342142D02*
X75340476Y-29437380D01*
X75340476Y-29437380D02*
X75292857Y-29485000D01*
X75292857Y-29485000D02*
X75197619Y-29532619D01*
X75197619Y-29532619D02*
X75102381Y-29532619D01*
X75102381Y-29532619D02*
X75007143Y-29485000D01*
X75007143Y-29485000D02*
X74959524Y-29437380D01*
X74959524Y-29437380D02*
X74911905Y-29342142D01*
X74911905Y-29342142D02*
X74864286Y-29151666D01*
X74864286Y-29151666D02*
X74864286Y-28913571D01*
X74864286Y-28913571D02*
X74911905Y-28723095D01*
X74911905Y-28723095D02*
X74959524Y-28627857D01*
X74959524Y-28627857D02*
X75007143Y-28580238D01*
X75007143Y-28580238D02*
X75102381Y-28532619D01*
X76054762Y-28532619D02*
X76150000Y-28532619D01*
X76150000Y-28532619D02*
X76245238Y-28580238D01*
X76245238Y-28580238D02*
X76292857Y-28627857D01*
X76292857Y-28627857D02*
X76340476Y-28723095D01*
X76340476Y-28723095D02*
X76388095Y-28913571D01*
X76388095Y-28913571D02*
X76388095Y-29151666D01*
X76388095Y-29151666D02*
X76340476Y-29342142D01*
X76340476Y-29342142D02*
X76292857Y-29437380D01*
X76292857Y-29437380D02*
X76245238Y-29485000D01*
X76245238Y-29485000D02*
X76150000Y-29532619D01*
X76150000Y-29532619D02*
X76054762Y-29532619D01*
X76054762Y-29532619D02*
X75959524Y-29485000D01*
X75959524Y-29485000D02*
X75911905Y-29437380D01*
X75911905Y-29437380D02*
X75864286Y-29342142D01*
X75864286Y-29342142D02*
X75816667Y-29151666D01*
X75816667Y-29151666D02*
X75816667Y-28913571D01*
X75816667Y-28913571D02*
X75864286Y-28723095D01*
X75864286Y-28723095D02*
X75911905Y-28627857D01*
X75911905Y-28627857D02*
X75959524Y-28580238D01*
X75959524Y-28580238D02*
X76054762Y-28532619D01*
X77007143Y-28532619D02*
X77102381Y-28532619D01*
X77102381Y-28532619D02*
X77197619Y-28580238D01*
X77197619Y-28580238D02*
X77245238Y-28627857D01*
X77245238Y-28627857D02*
X77292857Y-28723095D01*
X77292857Y-28723095D02*
X77340476Y-28913571D01*
X77340476Y-28913571D02*
X77340476Y-29151666D01*
X77340476Y-29151666D02*
X77292857Y-29342142D01*
X77292857Y-29342142D02*
X77245238Y-29437380D01*
X77245238Y-29437380D02*
X77197619Y-29485000D01*
X77197619Y-29485000D02*
X77102381Y-29532619D01*
X77102381Y-29532619D02*
X77007143Y-29532619D01*
X77007143Y-29532619D02*
X76911905Y-29485000D01*
X76911905Y-29485000D02*
X76864286Y-29437380D01*
X76864286Y-29437380D02*
X76816667Y-29342142D01*
X76816667Y-29342142D02*
X76769048Y-29151666D01*
X76769048Y-29151666D02*
X76769048Y-28913571D01*
X76769048Y-28913571D02*
X76816667Y-28723095D01*
X76816667Y-28723095D02*
X76864286Y-28627857D01*
X76864286Y-28627857D02*
X76911905Y-28580238D01*
X76911905Y-28580238D02*
X77007143Y-28532619D01*
X78530953Y-29532619D02*
X78530953Y-28865952D01*
X78530953Y-28961190D02*
X78578572Y-28913571D01*
X78578572Y-28913571D02*
X78673810Y-28865952D01*
X78673810Y-28865952D02*
X78816667Y-28865952D01*
X78816667Y-28865952D02*
X78911905Y-28913571D01*
X78911905Y-28913571D02*
X78959524Y-29008809D01*
X78959524Y-29008809D02*
X78959524Y-29532619D01*
X78959524Y-29008809D02*
X79007143Y-28913571D01*
X79007143Y-28913571D02*
X79102381Y-28865952D01*
X79102381Y-28865952D02*
X79245238Y-28865952D01*
X79245238Y-28865952D02*
X79340477Y-28913571D01*
X79340477Y-28913571D02*
X79388096Y-29008809D01*
X79388096Y-29008809D02*
X79388096Y-29532619D01*
X79864286Y-29532619D02*
X79864286Y-28865952D01*
X79864286Y-28961190D02*
X79911905Y-28913571D01*
X79911905Y-28913571D02*
X80007143Y-28865952D01*
X80007143Y-28865952D02*
X80150000Y-28865952D01*
X80150000Y-28865952D02*
X80245238Y-28913571D01*
X80245238Y-28913571D02*
X80292857Y-29008809D01*
X80292857Y-29008809D02*
X80292857Y-29532619D01*
X80292857Y-29008809D02*
X80340476Y-28913571D01*
X80340476Y-28913571D02*
X80435714Y-28865952D01*
X80435714Y-28865952D02*
X80578571Y-28865952D01*
X80578571Y-28865952D02*
X80673810Y-28913571D01*
X80673810Y-28913571D02*
X80721429Y-29008809D01*
X80721429Y-29008809D02*
X80721429Y-29532619D01*
X52200000Y-38800000D02*
X52200000Y-29588780D01*
X100100000Y-38800000D02*
X100100000Y-29588780D01*
X52200000Y-30175200D02*
X100100000Y-30175200D01*
X52200000Y-30175200D02*
X100100000Y-30175200D01*
X52200000Y-30175200D02*
X53326504Y-29588779D01*
X52200000Y-30175200D02*
X53326504Y-30761621D01*
X100100000Y-30175200D02*
X98973496Y-30761621D01*
X100100000Y-30175200D02*
X98973496Y-29588779D01*
X41283419Y-59766665D02*
X41283419Y-59147618D01*
X41283419Y-59147618D02*
X41664371Y-59480951D01*
X41664371Y-59480951D02*
X41664371Y-59338094D01*
X41664371Y-59338094D02*
X41711990Y-59242856D01*
X41711990Y-59242856D02*
X41759609Y-59195237D01*
X41759609Y-59195237D02*
X41854847Y-59147618D01*
X41854847Y-59147618D02*
X42092942Y-59147618D01*
X42092942Y-59147618D02*
X42188180Y-59195237D01*
X42188180Y-59195237D02*
X42235800Y-59242856D01*
X42235800Y-59242856D02*
X42283419Y-59338094D01*
X42283419Y-59338094D02*
X42283419Y-59623808D01*
X42283419Y-59623808D02*
X42235800Y-59719046D01*
X42235800Y-59719046D02*
X42188180Y-59766665D01*
X42283419Y-58195237D02*
X42283419Y-58766665D01*
X42283419Y-58480951D02*
X41283419Y-58480951D01*
X41283419Y-58480951D02*
X41426276Y-58576189D01*
X41426276Y-58576189D02*
X41521514Y-58671427D01*
X41521514Y-58671427D02*
X41569133Y-58766665D01*
X42188180Y-57766665D02*
X42235800Y-57719046D01*
X42235800Y-57719046D02*
X42283419Y-57766665D01*
X42283419Y-57766665D02*
X42235800Y-57814284D01*
X42235800Y-57814284D02*
X42188180Y-57766665D01*
X42188180Y-57766665D02*
X42283419Y-57766665D01*
X41283419Y-56861904D02*
X41283419Y-57052380D01*
X41283419Y-57052380D02*
X41331038Y-57147618D01*
X41331038Y-57147618D02*
X41378657Y-57195237D01*
X41378657Y-57195237D02*
X41521514Y-57290475D01*
X41521514Y-57290475D02*
X41711990Y-57338094D01*
X41711990Y-57338094D02*
X42092942Y-57338094D01*
X42092942Y-57338094D02*
X42188180Y-57290475D01*
X42188180Y-57290475D02*
X42235800Y-57242856D01*
X42235800Y-57242856D02*
X42283419Y-57147618D01*
X42283419Y-57147618D02*
X42283419Y-56957142D01*
X42283419Y-56957142D02*
X42235800Y-56861904D01*
X42235800Y-56861904D02*
X42188180Y-56814285D01*
X42188180Y-56814285D02*
X42092942Y-56766666D01*
X42092942Y-56766666D02*
X41854847Y-56766666D01*
X41854847Y-56766666D02*
X41759609Y-56814285D01*
X41759609Y-56814285D02*
X41711990Y-56861904D01*
X41711990Y-56861904D02*
X41664371Y-56957142D01*
X41664371Y-56957142D02*
X41664371Y-57147618D01*
X41664371Y-57147618D02*
X41711990Y-57242856D01*
X41711990Y-57242856D02*
X41759609Y-57290475D01*
X41759609Y-57290475D02*
X41854847Y-57338094D01*
X41283419Y-56147618D02*
X41283419Y-56052380D01*
X41283419Y-56052380D02*
X41331038Y-55957142D01*
X41331038Y-55957142D02*
X41378657Y-55909523D01*
X41378657Y-55909523D02*
X41473895Y-55861904D01*
X41473895Y-55861904D02*
X41664371Y-55814285D01*
X41664371Y-55814285D02*
X41902466Y-55814285D01*
X41902466Y-55814285D02*
X42092942Y-55861904D01*
X42092942Y-55861904D02*
X42188180Y-55909523D01*
X42188180Y-55909523D02*
X42235800Y-55957142D01*
X42235800Y-55957142D02*
X42283419Y-56052380D01*
X42283419Y-56052380D02*
X42283419Y-56147618D01*
X42283419Y-56147618D02*
X42235800Y-56242856D01*
X42235800Y-56242856D02*
X42188180Y-56290475D01*
X42188180Y-56290475D02*
X42092942Y-56338094D01*
X42092942Y-56338094D02*
X41902466Y-56385713D01*
X41902466Y-56385713D02*
X41664371Y-56385713D01*
X41664371Y-56385713D02*
X41473895Y-56338094D01*
X41473895Y-56338094D02*
X41378657Y-56290475D01*
X41378657Y-56290475D02*
X41331038Y-56242856D01*
X41331038Y-56242856D02*
X41283419Y-56147618D01*
X41283419Y-55195237D02*
X41283419Y-55099999D01*
X41283419Y-55099999D02*
X41331038Y-55004761D01*
X41331038Y-55004761D02*
X41378657Y-54957142D01*
X41378657Y-54957142D02*
X41473895Y-54909523D01*
X41473895Y-54909523D02*
X41664371Y-54861904D01*
X41664371Y-54861904D02*
X41902466Y-54861904D01*
X41902466Y-54861904D02*
X42092942Y-54909523D01*
X42092942Y-54909523D02*
X42188180Y-54957142D01*
X42188180Y-54957142D02*
X42235800Y-55004761D01*
X42235800Y-55004761D02*
X42283419Y-55099999D01*
X42283419Y-55099999D02*
X42283419Y-55195237D01*
X42283419Y-55195237D02*
X42235800Y-55290475D01*
X42235800Y-55290475D02*
X42188180Y-55338094D01*
X42188180Y-55338094D02*
X42092942Y-55385713D01*
X42092942Y-55385713D02*
X41902466Y-55433332D01*
X41902466Y-55433332D02*
X41664371Y-55433332D01*
X41664371Y-55433332D02*
X41473895Y-55385713D01*
X41473895Y-55385713D02*
X41378657Y-55338094D01*
X41378657Y-55338094D02*
X41331038Y-55290475D01*
X41331038Y-55290475D02*
X41283419Y-55195237D01*
X41283419Y-54242856D02*
X41283419Y-54147618D01*
X41283419Y-54147618D02*
X41331038Y-54052380D01*
X41331038Y-54052380D02*
X41378657Y-54004761D01*
X41378657Y-54004761D02*
X41473895Y-53957142D01*
X41473895Y-53957142D02*
X41664371Y-53909523D01*
X41664371Y-53909523D02*
X41902466Y-53909523D01*
X41902466Y-53909523D02*
X42092942Y-53957142D01*
X42092942Y-53957142D02*
X42188180Y-54004761D01*
X42188180Y-54004761D02*
X42235800Y-54052380D01*
X42235800Y-54052380D02*
X42283419Y-54147618D01*
X42283419Y-54147618D02*
X42283419Y-54242856D01*
X42283419Y-54242856D02*
X42235800Y-54338094D01*
X42235800Y-54338094D02*
X42188180Y-54385713D01*
X42188180Y-54385713D02*
X42092942Y-54433332D01*
X42092942Y-54433332D02*
X41902466Y-54480951D01*
X41902466Y-54480951D02*
X41664371Y-54480951D01*
X41664371Y-54480951D02*
X41473895Y-54433332D01*
X41473895Y-54433332D02*
X41378657Y-54385713D01*
X41378657Y-54385713D02*
X41331038Y-54338094D01*
X41331038Y-54338094D02*
X41283419Y-54242856D01*
X42283419Y-52719046D02*
X41616752Y-52719046D01*
X41711990Y-52719046D02*
X41664371Y-52671427D01*
X41664371Y-52671427D02*
X41616752Y-52576189D01*
X41616752Y-52576189D02*
X41616752Y-52433332D01*
X41616752Y-52433332D02*
X41664371Y-52338094D01*
X41664371Y-52338094D02*
X41759609Y-52290475D01*
X41759609Y-52290475D02*
X42283419Y-52290475D01*
X41759609Y-52290475D02*
X41664371Y-52242856D01*
X41664371Y-52242856D02*
X41616752Y-52147618D01*
X41616752Y-52147618D02*
X41616752Y-52004761D01*
X41616752Y-52004761D02*
X41664371Y-51909522D01*
X41664371Y-51909522D02*
X41759609Y-51861903D01*
X41759609Y-51861903D02*
X42283419Y-51861903D01*
X42283419Y-51385713D02*
X41616752Y-51385713D01*
X41711990Y-51385713D02*
X41664371Y-51338094D01*
X41664371Y-51338094D02*
X41616752Y-51242856D01*
X41616752Y-51242856D02*
X41616752Y-51099999D01*
X41616752Y-51099999D02*
X41664371Y-51004761D01*
X41664371Y-51004761D02*
X41759609Y-50957142D01*
X41759609Y-50957142D02*
X42283419Y-50957142D01*
X41759609Y-50957142D02*
X41664371Y-50909523D01*
X41664371Y-50909523D02*
X41616752Y-50814285D01*
X41616752Y-50814285D02*
X41616752Y-50671428D01*
X41616752Y-50671428D02*
X41664371Y-50576189D01*
X41664371Y-50576189D02*
X41759609Y-50528570D01*
X41759609Y-50528570D02*
X42283419Y-50528570D01*
X51700000Y-39300000D02*
X42339580Y-39300000D01*
X51700000Y-70900000D02*
X42339580Y-70900000D01*
X42926000Y-39300000D02*
X42926000Y-70900000D01*
X42926000Y-39300000D02*
X42926000Y-70900000D01*
X42926000Y-39300000D02*
X43512421Y-40426504D01*
X42926000Y-39300000D02*
X42339579Y-40426504D01*
X42926000Y-70900000D02*
X42339579Y-69773496D01*
X42926000Y-70900000D02*
X43512421Y-69773496D01*
D13*
X66583980Y-70219866D02*
X66631600Y-70267485D01*
X66631600Y-70267485D02*
X66679219Y-70410342D01*
X66679219Y-70410342D02*
X66679219Y-70505580D01*
X66679219Y-70505580D02*
X66631600Y-70648437D01*
X66631600Y-70648437D02*
X66536361Y-70743675D01*
X66536361Y-70743675D02*
X66441123Y-70791294D01*
X66441123Y-70791294D02*
X66250647Y-70838913D01*
X66250647Y-70838913D02*
X66107790Y-70838913D01*
X66107790Y-70838913D02*
X65917314Y-70791294D01*
X65917314Y-70791294D02*
X65822076Y-70743675D01*
X65822076Y-70743675D02*
X65726838Y-70648437D01*
X65726838Y-70648437D02*
X65679219Y-70505580D01*
X65679219Y-70505580D02*
X65679219Y-70410342D01*
X65679219Y-70410342D02*
X65726838Y-70267485D01*
X65726838Y-70267485D02*
X65774457Y-70219866D01*
X65774457Y-69838913D02*
X65726838Y-69791294D01*
X65726838Y-69791294D02*
X65679219Y-69696056D01*
X65679219Y-69696056D02*
X65679219Y-69457961D01*
X65679219Y-69457961D02*
X65726838Y-69362723D01*
X65726838Y-69362723D02*
X65774457Y-69315104D01*
X65774457Y-69315104D02*
X65869695Y-69267485D01*
X65869695Y-69267485D02*
X65964933Y-69267485D01*
X65964933Y-69267485D02*
X66107790Y-69315104D01*
X66107790Y-69315104D02*
X66679219Y-69886532D01*
X66679219Y-69886532D02*
X66679219Y-69267485D01*
X55554819Y-49461904D02*
X55554819Y-50033332D01*
X55554819Y-49747618D02*
X54554819Y-49747618D01*
X54554819Y-49747618D02*
X54697676Y-49842856D01*
X54697676Y-49842856D02*
X54792914Y-49938094D01*
X54792914Y-49938094D02*
X54840533Y-50033332D01*
X54650057Y-49080951D02*
X54602438Y-49033332D01*
X54602438Y-49033332D02*
X54554819Y-48938094D01*
X54554819Y-48938094D02*
X54554819Y-48699999D01*
X54554819Y-48699999D02*
X54602438Y-48604761D01*
X54602438Y-48604761D02*
X54650057Y-48557142D01*
X54650057Y-48557142D02*
X54745295Y-48509523D01*
X54745295Y-48509523D02*
X54840533Y-48509523D01*
X54840533Y-48509523D02*
X54983390Y-48557142D01*
X54983390Y-48557142D02*
X55554819Y-49128570D01*
X55554819Y-49128570D02*
X55554819Y-48509523D01*
X54554819Y-48223808D02*
X55554819Y-47890475D01*
X55554819Y-47890475D02*
X54554819Y-47557142D01*
X55554819Y-46461903D02*
X54554819Y-46461903D01*
X55554819Y-45985713D02*
X54554819Y-45985713D01*
X54554819Y-45985713D02*
X55554819Y-45414285D01*
X55554819Y-45414285D02*
X54554819Y-45414285D01*
X50466666Y-43654819D02*
X50466666Y-44369104D01*
X50466666Y-44369104D02*
X50419047Y-44511961D01*
X50419047Y-44511961D02*
X50323809Y-44607200D01*
X50323809Y-44607200D02*
X50180952Y-44654819D01*
X50180952Y-44654819D02*
X50085714Y-44654819D01*
X51371428Y-43988152D02*
X51371428Y-44654819D01*
X51133333Y-43607200D02*
X50895238Y-44321485D01*
X50895238Y-44321485D02*
X51514285Y-44321485D01*
X70974819Y-61604166D02*
X70498628Y-61937499D01*
X70974819Y-62175594D02*
X69974819Y-62175594D01*
X69974819Y-62175594D02*
X69974819Y-61794642D01*
X69974819Y-61794642D02*
X70022438Y-61699404D01*
X70022438Y-61699404D02*
X70070057Y-61651785D01*
X70070057Y-61651785D02*
X70165295Y-61604166D01*
X70165295Y-61604166D02*
X70308152Y-61604166D01*
X70308152Y-61604166D02*
X70403390Y-61651785D01*
X70403390Y-61651785D02*
X70451009Y-61699404D01*
X70451009Y-61699404D02*
X70498628Y-61794642D01*
X70498628Y-61794642D02*
X70498628Y-62175594D01*
X70974819Y-60651785D02*
X70974819Y-61223213D01*
X70974819Y-60937499D02*
X69974819Y-60937499D01*
X69974819Y-60937499D02*
X70117676Y-61032737D01*
X70117676Y-61032737D02*
X70212914Y-61127975D01*
X70212914Y-61127975D02*
X70260533Y-61223213D01*
X103054819Y-56333333D02*
X103769104Y-56333333D01*
X103769104Y-56333333D02*
X103911961Y-56380952D01*
X103911961Y-56380952D02*
X104007200Y-56476190D01*
X104007200Y-56476190D02*
X104054819Y-56619047D01*
X104054819Y-56619047D02*
X104054819Y-56714285D01*
X104054819Y-55333333D02*
X104054819Y-55904761D01*
X104054819Y-55619047D02*
X103054819Y-55619047D01*
X103054819Y-55619047D02*
X103197676Y-55714285D01*
X103197676Y-55714285D02*
X103292914Y-55809523D01*
X103292914Y-55809523D02*
X103340533Y-55904761D01*
X92420833Y-54504819D02*
X92087500Y-54028628D01*
X91849405Y-54504819D02*
X91849405Y-53504819D01*
X91849405Y-53504819D02*
X92230357Y-53504819D01*
X92230357Y-53504819D02*
X92325595Y-53552438D01*
X92325595Y-53552438D02*
X92373214Y-53600057D01*
X92373214Y-53600057D02*
X92420833Y-53695295D01*
X92420833Y-53695295D02*
X92420833Y-53838152D01*
X92420833Y-53838152D02*
X92373214Y-53933390D01*
X92373214Y-53933390D02*
X92325595Y-53981009D01*
X92325595Y-53981009D02*
X92230357Y-54028628D01*
X92230357Y-54028628D02*
X91849405Y-54028628D01*
X92754167Y-53504819D02*
X93373214Y-53504819D01*
X93373214Y-53504819D02*
X93039881Y-53885771D01*
X93039881Y-53885771D02*
X93182738Y-53885771D01*
X93182738Y-53885771D02*
X93277976Y-53933390D01*
X93277976Y-53933390D02*
X93325595Y-53981009D01*
X93325595Y-53981009D02*
X93373214Y-54076247D01*
X93373214Y-54076247D02*
X93373214Y-54314342D01*
X93373214Y-54314342D02*
X93325595Y-54409580D01*
X93325595Y-54409580D02*
X93277976Y-54457200D01*
X93277976Y-54457200D02*
X93182738Y-54504819D01*
X93182738Y-54504819D02*
X92897024Y-54504819D01*
X92897024Y-54504819D02*
X92801786Y-54457200D01*
X92801786Y-54457200D02*
X92754167Y-54409580D01*
X72959580Y-70266666D02*
X73007200Y-70314285D01*
X73007200Y-70314285D02*
X73054819Y-70457142D01*
X73054819Y-70457142D02*
X73054819Y-70552380D01*
X73054819Y-70552380D02*
X73007200Y-70695237D01*
X73007200Y-70695237D02*
X72911961Y-70790475D01*
X72911961Y-70790475D02*
X72816723Y-70838094D01*
X72816723Y-70838094D02*
X72626247Y-70885713D01*
X72626247Y-70885713D02*
X72483390Y-70885713D01*
X72483390Y-70885713D02*
X72292914Y-70838094D01*
X72292914Y-70838094D02*
X72197676Y-70790475D01*
X72197676Y-70790475D02*
X72102438Y-70695237D01*
X72102438Y-70695237D02*
X72054819Y-70552380D01*
X72054819Y-70552380D02*
X72054819Y-70457142D01*
X72054819Y-70457142D02*
X72102438Y-70314285D01*
X72102438Y-70314285D02*
X72150057Y-70266666D01*
X72054819Y-69933332D02*
X72054819Y-69266666D01*
X72054819Y-69266666D02*
X73054819Y-69695237D01*
X95254819Y-66183333D02*
X95969104Y-66183333D01*
X95969104Y-66183333D02*
X96111961Y-66230952D01*
X96111961Y-66230952D02*
X96207200Y-66326190D01*
X96207200Y-66326190D02*
X96254819Y-66469047D01*
X96254819Y-66469047D02*
X96254819Y-66564285D01*
X96254819Y-65707142D02*
X95254819Y-65707142D01*
X95254819Y-65707142D02*
X95254819Y-65326190D01*
X95254819Y-65326190D02*
X95302438Y-65230952D01*
X95302438Y-65230952D02*
X95350057Y-65183333D01*
X95350057Y-65183333D02*
X95445295Y-65135714D01*
X95445295Y-65135714D02*
X95588152Y-65135714D01*
X95588152Y-65135714D02*
X95683390Y-65183333D01*
X95683390Y-65183333D02*
X95731009Y-65230952D01*
X95731009Y-65230952D02*
X95778628Y-65326190D01*
X95778628Y-65326190D02*
X95778628Y-65707142D01*
X96254819Y-64183333D02*
X96254819Y-64754761D01*
X96254819Y-64469047D02*
X95254819Y-64469047D01*
X95254819Y-64469047D02*
X95397676Y-64564285D01*
X95397676Y-64564285D02*
X95492914Y-64659523D01*
X95492914Y-64659523D02*
X95540533Y-64754761D01*
X87554819Y-59683333D02*
X88269104Y-59683333D01*
X88269104Y-59683333D02*
X88411961Y-59730952D01*
X88411961Y-59730952D02*
X88507200Y-59826190D01*
X88507200Y-59826190D02*
X88554819Y-59969047D01*
X88554819Y-59969047D02*
X88554819Y-60064285D01*
X88554819Y-59207142D02*
X87554819Y-59207142D01*
X87554819Y-59207142D02*
X87554819Y-58826190D01*
X87554819Y-58826190D02*
X87602438Y-58730952D01*
X87602438Y-58730952D02*
X87650057Y-58683333D01*
X87650057Y-58683333D02*
X87745295Y-58635714D01*
X87745295Y-58635714D02*
X87888152Y-58635714D01*
X87888152Y-58635714D02*
X87983390Y-58683333D01*
X87983390Y-58683333D02*
X88031009Y-58730952D01*
X88031009Y-58730952D02*
X88078628Y-58826190D01*
X88078628Y-58826190D02*
X88078628Y-59207142D01*
X87554819Y-58302380D02*
X87554819Y-57683333D01*
X87554819Y-57683333D02*
X87935771Y-58016666D01*
X87935771Y-58016666D02*
X87935771Y-57873809D01*
X87935771Y-57873809D02*
X87983390Y-57778571D01*
X87983390Y-57778571D02*
X88031009Y-57730952D01*
X88031009Y-57730952D02*
X88126247Y-57683333D01*
X88126247Y-57683333D02*
X88364342Y-57683333D01*
X88364342Y-57683333D02*
X88459580Y-57730952D01*
X88459580Y-57730952D02*
X88507200Y-57778571D01*
X88507200Y-57778571D02*
X88554819Y-57873809D01*
X88554819Y-57873809D02*
X88554819Y-58159523D01*
X88554819Y-58159523D02*
X88507200Y-58254761D01*
X88507200Y-58254761D02*
X88459580Y-58302380D01*
X68579580Y-55416666D02*
X68627200Y-55464285D01*
X68627200Y-55464285D02*
X68674819Y-55607142D01*
X68674819Y-55607142D02*
X68674819Y-55702380D01*
X68674819Y-55702380D02*
X68627200Y-55845237D01*
X68627200Y-55845237D02*
X68531961Y-55940475D01*
X68531961Y-55940475D02*
X68436723Y-55988094D01*
X68436723Y-55988094D02*
X68246247Y-56035713D01*
X68246247Y-56035713D02*
X68103390Y-56035713D01*
X68103390Y-56035713D02*
X67912914Y-55988094D01*
X67912914Y-55988094D02*
X67817676Y-55940475D01*
X67817676Y-55940475D02*
X67722438Y-55845237D01*
X67722438Y-55845237D02*
X67674819Y-55702380D01*
X67674819Y-55702380D02*
X67674819Y-55607142D01*
X67674819Y-55607142D02*
X67722438Y-55464285D01*
X67722438Y-55464285D02*
X67770057Y-55416666D01*
X68008152Y-54559523D02*
X68674819Y-54559523D01*
X67627200Y-54797618D02*
X68341485Y-55035713D01*
X68341485Y-55035713D02*
X68341485Y-54416666D01*
X76659580Y-70270666D02*
X76707200Y-70318285D01*
X76707200Y-70318285D02*
X76754819Y-70461142D01*
X76754819Y-70461142D02*
X76754819Y-70556380D01*
X76754819Y-70556380D02*
X76707200Y-70699237D01*
X76707200Y-70699237D02*
X76611961Y-70794475D01*
X76611961Y-70794475D02*
X76516723Y-70842094D01*
X76516723Y-70842094D02*
X76326247Y-70889713D01*
X76326247Y-70889713D02*
X76183390Y-70889713D01*
X76183390Y-70889713D02*
X75992914Y-70842094D01*
X75992914Y-70842094D02*
X75897676Y-70794475D01*
X75897676Y-70794475D02*
X75802438Y-70699237D01*
X75802438Y-70699237D02*
X75754819Y-70556380D01*
X75754819Y-70556380D02*
X75754819Y-70461142D01*
X75754819Y-70461142D02*
X75802438Y-70318285D01*
X75802438Y-70318285D02*
X75850057Y-70270666D01*
X75754819Y-69365904D02*
X75754819Y-69842094D01*
X75754819Y-69842094D02*
X76231009Y-69889713D01*
X76231009Y-69889713D02*
X76183390Y-69842094D01*
X76183390Y-69842094D02*
X76135771Y-69746856D01*
X76135771Y-69746856D02*
X76135771Y-69508761D01*
X76135771Y-69508761D02*
X76183390Y-69413523D01*
X76183390Y-69413523D02*
X76231009Y-69365904D01*
X76231009Y-69365904D02*
X76326247Y-69318285D01*
X76326247Y-69318285D02*
X76564342Y-69318285D01*
X76564342Y-69318285D02*
X76659580Y-69365904D01*
X76659580Y-69365904D02*
X76707200Y-69413523D01*
X76707200Y-69413523D02*
X76754819Y-69508761D01*
X76754819Y-69508761D02*
X76754819Y-69746856D01*
X76754819Y-69746856D02*
X76707200Y-69842094D01*
X76707200Y-69842094D02*
X76659580Y-69889713D01*
X56954819Y-62071428D02*
X55954819Y-62071428D01*
X55954819Y-62071428D02*
X56669104Y-61738095D01*
X56669104Y-61738095D02*
X55954819Y-61404762D01*
X55954819Y-61404762D02*
X56954819Y-61404762D01*
X56954819Y-60785714D02*
X56907200Y-60880952D01*
X56907200Y-60880952D02*
X56859580Y-60928571D01*
X56859580Y-60928571D02*
X56764342Y-60976190D01*
X56764342Y-60976190D02*
X56478628Y-60976190D01*
X56478628Y-60976190D02*
X56383390Y-60928571D01*
X56383390Y-60928571D02*
X56335771Y-60880952D01*
X56335771Y-60880952D02*
X56288152Y-60785714D01*
X56288152Y-60785714D02*
X56288152Y-60642857D01*
X56288152Y-60642857D02*
X56335771Y-60547619D01*
X56335771Y-60547619D02*
X56383390Y-60500000D01*
X56383390Y-60500000D02*
X56478628Y-60452381D01*
X56478628Y-60452381D02*
X56764342Y-60452381D01*
X56764342Y-60452381D02*
X56859580Y-60500000D01*
X56859580Y-60500000D02*
X56907200Y-60547619D01*
X56907200Y-60547619D02*
X56954819Y-60642857D01*
X56954819Y-60642857D02*
X56954819Y-60785714D01*
X56288152Y-60166666D02*
X56288152Y-59785714D01*
X55954819Y-60023809D02*
X56811961Y-60023809D01*
X56811961Y-60023809D02*
X56907200Y-59976190D01*
X56907200Y-59976190D02*
X56954819Y-59880952D01*
X56954819Y-59880952D02*
X56954819Y-59785714D01*
X56954819Y-59309523D02*
X56907200Y-59404761D01*
X56907200Y-59404761D02*
X56859580Y-59452380D01*
X56859580Y-59452380D02*
X56764342Y-59499999D01*
X56764342Y-59499999D02*
X56478628Y-59499999D01*
X56478628Y-59499999D02*
X56383390Y-59452380D01*
X56383390Y-59452380D02*
X56335771Y-59404761D01*
X56335771Y-59404761D02*
X56288152Y-59309523D01*
X56288152Y-59309523D02*
X56288152Y-59166666D01*
X56288152Y-59166666D02*
X56335771Y-59071428D01*
X56335771Y-59071428D02*
X56383390Y-59023809D01*
X56383390Y-59023809D02*
X56478628Y-58976190D01*
X56478628Y-58976190D02*
X56764342Y-58976190D01*
X56764342Y-58976190D02*
X56859580Y-59023809D01*
X56859580Y-59023809D02*
X56907200Y-59071428D01*
X56907200Y-59071428D02*
X56954819Y-59166666D01*
X56954819Y-59166666D02*
X56954819Y-59309523D01*
X56954819Y-58547618D02*
X56288152Y-58547618D01*
X56478628Y-58547618D02*
X56383390Y-58499999D01*
X56383390Y-58499999D02*
X56335771Y-58452380D01*
X56335771Y-58452380D02*
X56288152Y-58357142D01*
X56288152Y-58357142D02*
X56288152Y-58261904D01*
X56859580Y-56595237D02*
X56907200Y-56642856D01*
X56907200Y-56642856D02*
X56954819Y-56785713D01*
X56954819Y-56785713D02*
X56954819Y-56880951D01*
X56954819Y-56880951D02*
X56907200Y-57023808D01*
X56907200Y-57023808D02*
X56811961Y-57119046D01*
X56811961Y-57119046D02*
X56716723Y-57166665D01*
X56716723Y-57166665D02*
X56526247Y-57214284D01*
X56526247Y-57214284D02*
X56383390Y-57214284D01*
X56383390Y-57214284D02*
X56192914Y-57166665D01*
X56192914Y-57166665D02*
X56097676Y-57119046D01*
X56097676Y-57119046D02*
X56002438Y-57023808D01*
X56002438Y-57023808D02*
X55954819Y-56880951D01*
X55954819Y-56880951D02*
X55954819Y-56785713D01*
X55954819Y-56785713D02*
X56002438Y-56642856D01*
X56002438Y-56642856D02*
X56050057Y-56595237D01*
X56954819Y-56023808D02*
X56907200Y-56119046D01*
X56907200Y-56119046D02*
X56859580Y-56166665D01*
X56859580Y-56166665D02*
X56764342Y-56214284D01*
X56764342Y-56214284D02*
X56478628Y-56214284D01*
X56478628Y-56214284D02*
X56383390Y-56166665D01*
X56383390Y-56166665D02*
X56335771Y-56119046D01*
X56335771Y-56119046D02*
X56288152Y-56023808D01*
X56288152Y-56023808D02*
X56288152Y-55880951D01*
X56288152Y-55880951D02*
X56335771Y-55785713D01*
X56335771Y-55785713D02*
X56383390Y-55738094D01*
X56383390Y-55738094D02*
X56478628Y-55690475D01*
X56478628Y-55690475D02*
X56764342Y-55690475D01*
X56764342Y-55690475D02*
X56859580Y-55738094D01*
X56859580Y-55738094D02*
X56907200Y-55785713D01*
X56907200Y-55785713D02*
X56954819Y-55880951D01*
X56954819Y-55880951D02*
X56954819Y-56023808D01*
X56288152Y-55261903D02*
X56954819Y-55261903D01*
X56383390Y-55261903D02*
X56335771Y-55214284D01*
X56335771Y-55214284D02*
X56288152Y-55119046D01*
X56288152Y-55119046D02*
X56288152Y-54976189D01*
X56288152Y-54976189D02*
X56335771Y-54880951D01*
X56335771Y-54880951D02*
X56431009Y-54833332D01*
X56431009Y-54833332D02*
X56954819Y-54833332D01*
X56288152Y-54357141D02*
X56954819Y-54357141D01*
X56383390Y-54357141D02*
X56335771Y-54309522D01*
X56335771Y-54309522D02*
X56288152Y-54214284D01*
X56288152Y-54214284D02*
X56288152Y-54071427D01*
X56288152Y-54071427D02*
X56335771Y-53976189D01*
X56335771Y-53976189D02*
X56431009Y-53928570D01*
X56431009Y-53928570D02*
X56954819Y-53928570D01*
X50873066Y-51474019D02*
X50873066Y-52188304D01*
X50873066Y-52188304D02*
X50825447Y-52331161D01*
X50825447Y-52331161D02*
X50730209Y-52426400D01*
X50730209Y-52426400D02*
X50587352Y-52474019D01*
X50587352Y-52474019D02*
X50492114Y-52474019D01*
X51825447Y-51474019D02*
X51349257Y-51474019D01*
X51349257Y-51474019D02*
X51301638Y-51950209D01*
X51301638Y-51950209D02*
X51349257Y-51902590D01*
X51349257Y-51902590D02*
X51444495Y-51854971D01*
X51444495Y-51854971D02*
X51682590Y-51854971D01*
X51682590Y-51854971D02*
X51777828Y-51902590D01*
X51777828Y-51902590D02*
X51825447Y-51950209D01*
X51825447Y-51950209D02*
X51873066Y-52045447D01*
X51873066Y-52045447D02*
X51873066Y-52283542D01*
X51873066Y-52283542D02*
X51825447Y-52378780D01*
X51825447Y-52378780D02*
X51777828Y-52426400D01*
X51777828Y-52426400D02*
X51682590Y-52474019D01*
X51682590Y-52474019D02*
X51444495Y-52474019D01*
X51444495Y-52474019D02*
X51349257Y-52426400D01*
X51349257Y-52426400D02*
X51301638Y-52378780D01*
X66374819Y-60529166D02*
X65898628Y-60862499D01*
X66374819Y-61100594D02*
X65374819Y-61100594D01*
X65374819Y-61100594D02*
X65374819Y-60719642D01*
X65374819Y-60719642D02*
X65422438Y-60624404D01*
X65422438Y-60624404D02*
X65470057Y-60576785D01*
X65470057Y-60576785D02*
X65565295Y-60529166D01*
X65565295Y-60529166D02*
X65708152Y-60529166D01*
X65708152Y-60529166D02*
X65803390Y-60576785D01*
X65803390Y-60576785D02*
X65851009Y-60624404D01*
X65851009Y-60624404D02*
X65898628Y-60719642D01*
X65898628Y-60719642D02*
X65898628Y-61100594D01*
X65470057Y-60148213D02*
X65422438Y-60100594D01*
X65422438Y-60100594D02*
X65374819Y-60005356D01*
X65374819Y-60005356D02*
X65374819Y-59767261D01*
X65374819Y-59767261D02*
X65422438Y-59672023D01*
X65422438Y-59672023D02*
X65470057Y-59624404D01*
X65470057Y-59624404D02*
X65565295Y-59576785D01*
X65565295Y-59576785D02*
X65660533Y-59576785D01*
X65660533Y-59576785D02*
X65803390Y-59624404D01*
X65803390Y-59624404D02*
X66374819Y-60195832D01*
X66374819Y-60195832D02*
X66374819Y-59576785D01*
X86479580Y-66916666D02*
X86527200Y-66964285D01*
X86527200Y-66964285D02*
X86574819Y-67107142D01*
X86574819Y-67107142D02*
X86574819Y-67202380D01*
X86574819Y-67202380D02*
X86527200Y-67345237D01*
X86527200Y-67345237D02*
X86431961Y-67440475D01*
X86431961Y-67440475D02*
X86336723Y-67488094D01*
X86336723Y-67488094D02*
X86146247Y-67535713D01*
X86146247Y-67535713D02*
X86003390Y-67535713D01*
X86003390Y-67535713D02*
X85812914Y-67488094D01*
X85812914Y-67488094D02*
X85717676Y-67440475D01*
X85717676Y-67440475D02*
X85622438Y-67345237D01*
X85622438Y-67345237D02*
X85574819Y-67202380D01*
X85574819Y-67202380D02*
X85574819Y-67107142D01*
X85574819Y-67107142D02*
X85622438Y-66964285D01*
X85622438Y-66964285D02*
X85670057Y-66916666D01*
X86574819Y-66440475D02*
X86574819Y-66249999D01*
X86574819Y-66249999D02*
X86527200Y-66154761D01*
X86527200Y-66154761D02*
X86479580Y-66107142D01*
X86479580Y-66107142D02*
X86336723Y-66011904D01*
X86336723Y-66011904D02*
X86146247Y-65964285D01*
X86146247Y-65964285D02*
X85765295Y-65964285D01*
X85765295Y-65964285D02*
X85670057Y-66011904D01*
X85670057Y-66011904D02*
X85622438Y-66059523D01*
X85622438Y-66059523D02*
X85574819Y-66154761D01*
X85574819Y-66154761D02*
X85574819Y-66345237D01*
X85574819Y-66345237D02*
X85622438Y-66440475D01*
X85622438Y-66440475D02*
X85670057Y-66488094D01*
X85670057Y-66488094D02*
X85765295Y-66535713D01*
X85765295Y-66535713D02*
X86003390Y-66535713D01*
X86003390Y-66535713D02*
X86098628Y-66488094D01*
X86098628Y-66488094D02*
X86146247Y-66440475D01*
X86146247Y-66440475D02*
X86193866Y-66345237D01*
X86193866Y-66345237D02*
X86193866Y-66154761D01*
X86193866Y-66154761D02*
X86146247Y-66059523D01*
X86146247Y-66059523D02*
X86098628Y-66011904D01*
X86098628Y-66011904D02*
X86003390Y-65964285D01*
X59704819Y-48626190D02*
X58704819Y-48626190D01*
X58704819Y-48626190D02*
X58704819Y-48245238D01*
X58704819Y-48245238D02*
X58752438Y-48150000D01*
X58752438Y-48150000D02*
X58800057Y-48102381D01*
X58800057Y-48102381D02*
X58895295Y-48054762D01*
X58895295Y-48054762D02*
X59038152Y-48054762D01*
X59038152Y-48054762D02*
X59133390Y-48102381D01*
X59133390Y-48102381D02*
X59181009Y-48150000D01*
X59181009Y-48150000D02*
X59228628Y-48245238D01*
X59228628Y-48245238D02*
X59228628Y-48626190D01*
X59704819Y-47483333D02*
X59657200Y-47578571D01*
X59657200Y-47578571D02*
X59609580Y-47626190D01*
X59609580Y-47626190D02*
X59514342Y-47673809D01*
X59514342Y-47673809D02*
X59228628Y-47673809D01*
X59228628Y-47673809D02*
X59133390Y-47626190D01*
X59133390Y-47626190D02*
X59085771Y-47578571D01*
X59085771Y-47578571D02*
X59038152Y-47483333D01*
X59038152Y-47483333D02*
X59038152Y-47340476D01*
X59038152Y-47340476D02*
X59085771Y-47245238D01*
X59085771Y-47245238D02*
X59133390Y-47197619D01*
X59133390Y-47197619D02*
X59228628Y-47150000D01*
X59228628Y-47150000D02*
X59514342Y-47150000D01*
X59514342Y-47150000D02*
X59609580Y-47197619D01*
X59609580Y-47197619D02*
X59657200Y-47245238D01*
X59657200Y-47245238D02*
X59704819Y-47340476D01*
X59704819Y-47340476D02*
X59704819Y-47483333D01*
X59038152Y-46864285D02*
X59038152Y-46483333D01*
X58704819Y-46721428D02*
X59561961Y-46721428D01*
X59561961Y-46721428D02*
X59657200Y-46673809D01*
X59657200Y-46673809D02*
X59704819Y-46578571D01*
X59704819Y-46578571D02*
X59704819Y-46483333D01*
X59657200Y-45769047D02*
X59704819Y-45864285D01*
X59704819Y-45864285D02*
X59704819Y-46054761D01*
X59704819Y-46054761D02*
X59657200Y-46149999D01*
X59657200Y-46149999D02*
X59561961Y-46197618D01*
X59561961Y-46197618D02*
X59181009Y-46197618D01*
X59181009Y-46197618D02*
X59085771Y-46149999D01*
X59085771Y-46149999D02*
X59038152Y-46054761D01*
X59038152Y-46054761D02*
X59038152Y-45864285D01*
X59038152Y-45864285D02*
X59085771Y-45769047D01*
X59085771Y-45769047D02*
X59181009Y-45721428D01*
X59181009Y-45721428D02*
X59276247Y-45721428D01*
X59276247Y-45721428D02*
X59371485Y-46197618D01*
X59038152Y-45292856D02*
X59704819Y-45292856D01*
X59133390Y-45292856D02*
X59085771Y-45245237D01*
X59085771Y-45245237D02*
X59038152Y-45149999D01*
X59038152Y-45149999D02*
X59038152Y-45007142D01*
X59038152Y-45007142D02*
X59085771Y-44911904D01*
X59085771Y-44911904D02*
X59181009Y-44864285D01*
X59181009Y-44864285D02*
X59704819Y-44864285D01*
X59038152Y-44530951D02*
X59038152Y-44149999D01*
X58704819Y-44388094D02*
X59561961Y-44388094D01*
X59561961Y-44388094D02*
X59657200Y-44340475D01*
X59657200Y-44340475D02*
X59704819Y-44245237D01*
X59704819Y-44245237D02*
X59704819Y-44149999D01*
X59704819Y-43816665D02*
X59038152Y-43816665D01*
X58704819Y-43816665D02*
X58752438Y-43864284D01*
X58752438Y-43864284D02*
X58800057Y-43816665D01*
X58800057Y-43816665D02*
X58752438Y-43769046D01*
X58752438Y-43769046D02*
X58704819Y-43816665D01*
X58704819Y-43816665D02*
X58800057Y-43816665D01*
X59704819Y-43197618D02*
X59657200Y-43292856D01*
X59657200Y-43292856D02*
X59609580Y-43340475D01*
X59609580Y-43340475D02*
X59514342Y-43388094D01*
X59514342Y-43388094D02*
X59228628Y-43388094D01*
X59228628Y-43388094D02*
X59133390Y-43340475D01*
X59133390Y-43340475D02*
X59085771Y-43292856D01*
X59085771Y-43292856D02*
X59038152Y-43197618D01*
X59038152Y-43197618D02*
X59038152Y-43054761D01*
X59038152Y-43054761D02*
X59085771Y-42959523D01*
X59085771Y-42959523D02*
X59133390Y-42911904D01*
X59133390Y-42911904D02*
X59228628Y-42864285D01*
X59228628Y-42864285D02*
X59514342Y-42864285D01*
X59514342Y-42864285D02*
X59609580Y-42911904D01*
X59609580Y-42911904D02*
X59657200Y-42959523D01*
X59657200Y-42959523D02*
X59704819Y-43054761D01*
X59704819Y-43054761D02*
X59704819Y-43197618D01*
X59704819Y-42435713D02*
X59038152Y-42435713D01*
X59133390Y-42435713D02*
X59085771Y-42388094D01*
X59085771Y-42388094D02*
X59038152Y-42292856D01*
X59038152Y-42292856D02*
X59038152Y-42149999D01*
X59038152Y-42149999D02*
X59085771Y-42054761D01*
X59085771Y-42054761D02*
X59181009Y-42007142D01*
X59181009Y-42007142D02*
X59704819Y-42007142D01*
X59181009Y-42007142D02*
X59085771Y-41959523D01*
X59085771Y-41959523D02*
X59038152Y-41864285D01*
X59038152Y-41864285D02*
X59038152Y-41721428D01*
X59038152Y-41721428D02*
X59085771Y-41626189D01*
X59085771Y-41626189D02*
X59181009Y-41578570D01*
X59181009Y-41578570D02*
X59704819Y-41578570D01*
X59657200Y-40721428D02*
X59704819Y-40816666D01*
X59704819Y-40816666D02*
X59704819Y-41007142D01*
X59704819Y-41007142D02*
X59657200Y-41102380D01*
X59657200Y-41102380D02*
X59561961Y-41149999D01*
X59561961Y-41149999D02*
X59181009Y-41149999D01*
X59181009Y-41149999D02*
X59085771Y-41102380D01*
X59085771Y-41102380D02*
X59038152Y-41007142D01*
X59038152Y-41007142D02*
X59038152Y-40816666D01*
X59038152Y-40816666D02*
X59085771Y-40721428D01*
X59085771Y-40721428D02*
X59181009Y-40673809D01*
X59181009Y-40673809D02*
X59276247Y-40673809D01*
X59276247Y-40673809D02*
X59371485Y-41149999D01*
X59038152Y-40388094D02*
X59038152Y-40007142D01*
X58704819Y-40245237D02*
X59561961Y-40245237D01*
X59561961Y-40245237D02*
X59657200Y-40197618D01*
X59657200Y-40197618D02*
X59704819Y-40102380D01*
X59704819Y-40102380D02*
X59704819Y-40007142D01*
X59657200Y-39292856D02*
X59704819Y-39388094D01*
X59704819Y-39388094D02*
X59704819Y-39578570D01*
X59704819Y-39578570D02*
X59657200Y-39673808D01*
X59657200Y-39673808D02*
X59561961Y-39721427D01*
X59561961Y-39721427D02*
X59181009Y-39721427D01*
X59181009Y-39721427D02*
X59085771Y-39673808D01*
X59085771Y-39673808D02*
X59038152Y-39578570D01*
X59038152Y-39578570D02*
X59038152Y-39388094D01*
X59038152Y-39388094D02*
X59085771Y-39292856D01*
X59085771Y-39292856D02*
X59181009Y-39245237D01*
X59181009Y-39245237D02*
X59276247Y-39245237D01*
X59276247Y-39245237D02*
X59371485Y-39721427D01*
X59704819Y-38816665D02*
X59038152Y-38816665D01*
X59228628Y-38816665D02*
X59133390Y-38769046D01*
X59133390Y-38769046D02*
X59085771Y-38721427D01*
X59085771Y-38721427D02*
X59038152Y-38626189D01*
X59038152Y-38626189D02*
X59038152Y-38530951D01*
X103254819Y-62833333D02*
X103969104Y-62833333D01*
X103969104Y-62833333D02*
X104111961Y-62880952D01*
X104111961Y-62880952D02*
X104207200Y-62976190D01*
X104207200Y-62976190D02*
X104254819Y-63119047D01*
X104254819Y-63119047D02*
X104254819Y-63214285D01*
X103350057Y-62404761D02*
X103302438Y-62357142D01*
X103302438Y-62357142D02*
X103254819Y-62261904D01*
X103254819Y-62261904D02*
X103254819Y-62023809D01*
X103254819Y-62023809D02*
X103302438Y-61928571D01*
X103302438Y-61928571D02*
X103350057Y-61880952D01*
X103350057Y-61880952D02*
X103445295Y-61833333D01*
X103445295Y-61833333D02*
X103540533Y-61833333D01*
X103540533Y-61833333D02*
X103683390Y-61880952D01*
X103683390Y-61880952D02*
X104254819Y-62452380D01*
X104254819Y-62452380D02*
X104254819Y-61833333D01*
X78439580Y-53016666D02*
X78487200Y-53064285D01*
X78487200Y-53064285D02*
X78534819Y-53207142D01*
X78534819Y-53207142D02*
X78534819Y-53302380D01*
X78534819Y-53302380D02*
X78487200Y-53445237D01*
X78487200Y-53445237D02*
X78391961Y-53540475D01*
X78391961Y-53540475D02*
X78296723Y-53588094D01*
X78296723Y-53588094D02*
X78106247Y-53635713D01*
X78106247Y-53635713D02*
X77963390Y-53635713D01*
X77963390Y-53635713D02*
X77772914Y-53588094D01*
X77772914Y-53588094D02*
X77677676Y-53540475D01*
X77677676Y-53540475D02*
X77582438Y-53445237D01*
X77582438Y-53445237D02*
X77534819Y-53302380D01*
X77534819Y-53302380D02*
X77534819Y-53207142D01*
X77534819Y-53207142D02*
X77582438Y-53064285D01*
X77582438Y-53064285D02*
X77630057Y-53016666D01*
X77534819Y-52683332D02*
X77534819Y-52064285D01*
X77534819Y-52064285D02*
X77915771Y-52397618D01*
X77915771Y-52397618D02*
X77915771Y-52254761D01*
X77915771Y-52254761D02*
X77963390Y-52159523D01*
X77963390Y-52159523D02*
X78011009Y-52111904D01*
X78011009Y-52111904D02*
X78106247Y-52064285D01*
X78106247Y-52064285D02*
X78344342Y-52064285D01*
X78344342Y-52064285D02*
X78439580Y-52111904D01*
X78439580Y-52111904D02*
X78487200Y-52159523D01*
X78487200Y-52159523D02*
X78534819Y-52254761D01*
X78534819Y-52254761D02*
X78534819Y-52540475D01*
X78534819Y-52540475D02*
X78487200Y-52635713D01*
X78487200Y-52635713D02*
X78439580Y-52683332D01*
X75039580Y-63116666D02*
X75087200Y-63164285D01*
X75087200Y-63164285D02*
X75134819Y-63307142D01*
X75134819Y-63307142D02*
X75134819Y-63402380D01*
X75134819Y-63402380D02*
X75087200Y-63545237D01*
X75087200Y-63545237D02*
X74991961Y-63640475D01*
X74991961Y-63640475D02*
X74896723Y-63688094D01*
X74896723Y-63688094D02*
X74706247Y-63735713D01*
X74706247Y-63735713D02*
X74563390Y-63735713D01*
X74563390Y-63735713D02*
X74372914Y-63688094D01*
X74372914Y-63688094D02*
X74277676Y-63640475D01*
X74277676Y-63640475D02*
X74182438Y-63545237D01*
X74182438Y-63545237D02*
X74134819Y-63402380D01*
X74134819Y-63402380D02*
X74134819Y-63307142D01*
X74134819Y-63307142D02*
X74182438Y-63164285D01*
X74182438Y-63164285D02*
X74230057Y-63116666D01*
X74563390Y-62545237D02*
X74515771Y-62640475D01*
X74515771Y-62640475D02*
X74468152Y-62688094D01*
X74468152Y-62688094D02*
X74372914Y-62735713D01*
X74372914Y-62735713D02*
X74325295Y-62735713D01*
X74325295Y-62735713D02*
X74230057Y-62688094D01*
X74230057Y-62688094D02*
X74182438Y-62640475D01*
X74182438Y-62640475D02*
X74134819Y-62545237D01*
X74134819Y-62545237D02*
X74134819Y-62354761D01*
X74134819Y-62354761D02*
X74182438Y-62259523D01*
X74182438Y-62259523D02*
X74230057Y-62211904D01*
X74230057Y-62211904D02*
X74325295Y-62164285D01*
X74325295Y-62164285D02*
X74372914Y-62164285D01*
X74372914Y-62164285D02*
X74468152Y-62211904D01*
X74468152Y-62211904D02*
X74515771Y-62259523D01*
X74515771Y-62259523D02*
X74563390Y-62354761D01*
X74563390Y-62354761D02*
X74563390Y-62545237D01*
X74563390Y-62545237D02*
X74611009Y-62640475D01*
X74611009Y-62640475D02*
X74658628Y-62688094D01*
X74658628Y-62688094D02*
X74753866Y-62735713D01*
X74753866Y-62735713D02*
X74944342Y-62735713D01*
X74944342Y-62735713D02*
X75039580Y-62688094D01*
X75039580Y-62688094D02*
X75087200Y-62640475D01*
X75087200Y-62640475D02*
X75134819Y-62545237D01*
X75134819Y-62545237D02*
X75134819Y-62354761D01*
X75134819Y-62354761D02*
X75087200Y-62259523D01*
X75087200Y-62259523D02*
X75039580Y-62211904D01*
X75039580Y-62211904D02*
X74944342Y-62164285D01*
X74944342Y-62164285D02*
X74753866Y-62164285D01*
X74753866Y-62164285D02*
X74658628Y-62211904D01*
X74658628Y-62211904D02*
X74611009Y-62259523D01*
X74611009Y-62259523D02*
X74563390Y-62354761D01*
X91554819Y-62183333D02*
X92269104Y-62183333D01*
X92269104Y-62183333D02*
X92411961Y-62230952D01*
X92411961Y-62230952D02*
X92507200Y-62326190D01*
X92507200Y-62326190D02*
X92554819Y-62469047D01*
X92554819Y-62469047D02*
X92554819Y-62564285D01*
X92554819Y-61707142D02*
X91554819Y-61707142D01*
X91554819Y-61707142D02*
X91554819Y-61326190D01*
X91554819Y-61326190D02*
X91602438Y-61230952D01*
X91602438Y-61230952D02*
X91650057Y-61183333D01*
X91650057Y-61183333D02*
X91745295Y-61135714D01*
X91745295Y-61135714D02*
X91888152Y-61135714D01*
X91888152Y-61135714D02*
X91983390Y-61183333D01*
X91983390Y-61183333D02*
X92031009Y-61230952D01*
X92031009Y-61230952D02*
X92078628Y-61326190D01*
X92078628Y-61326190D02*
X92078628Y-61707142D01*
X91650057Y-60754761D02*
X91602438Y-60707142D01*
X91602438Y-60707142D02*
X91554819Y-60611904D01*
X91554819Y-60611904D02*
X91554819Y-60373809D01*
X91554819Y-60373809D02*
X91602438Y-60278571D01*
X91602438Y-60278571D02*
X91650057Y-60230952D01*
X91650057Y-60230952D02*
X91745295Y-60183333D01*
X91745295Y-60183333D02*
X91840533Y-60183333D01*
X91840533Y-60183333D02*
X91983390Y-60230952D01*
X91983390Y-60230952D02*
X92554819Y-60802380D01*
X92554819Y-60802380D02*
X92554819Y-60183333D01*
X81113095Y-54544819D02*
X81113095Y-55354342D01*
X81113095Y-55354342D02*
X81160714Y-55449580D01*
X81160714Y-55449580D02*
X81208333Y-55497200D01*
X81208333Y-55497200D02*
X81303571Y-55544819D01*
X81303571Y-55544819D02*
X81494047Y-55544819D01*
X81494047Y-55544819D02*
X81589285Y-55497200D01*
X81589285Y-55497200D02*
X81636904Y-55449580D01*
X81636904Y-55449580D02*
X81684523Y-55354342D01*
X81684523Y-55354342D02*
X81684523Y-54544819D01*
X82684523Y-55544819D02*
X82113095Y-55544819D01*
X82398809Y-55544819D02*
X82398809Y-54544819D01*
X82398809Y-54544819D02*
X82303571Y-54687676D01*
X82303571Y-54687676D02*
X82208333Y-54782914D01*
X82208333Y-54782914D02*
X82113095Y-54830533D01*
X103454819Y-49133333D02*
X104169104Y-49133333D01*
X104169104Y-49133333D02*
X104311961Y-49180952D01*
X104311961Y-49180952D02*
X104407200Y-49276190D01*
X104407200Y-49276190D02*
X104454819Y-49419047D01*
X104454819Y-49419047D02*
X104454819Y-49514285D01*
X103454819Y-48752380D02*
X103454819Y-48133333D01*
X103454819Y-48133333D02*
X103835771Y-48466666D01*
X103835771Y-48466666D02*
X103835771Y-48323809D01*
X103835771Y-48323809D02*
X103883390Y-48228571D01*
X103883390Y-48228571D02*
X103931009Y-48180952D01*
X103931009Y-48180952D02*
X104026247Y-48133333D01*
X104026247Y-48133333D02*
X104264342Y-48133333D01*
X104264342Y-48133333D02*
X104359580Y-48180952D01*
X104359580Y-48180952D02*
X104407200Y-48228571D01*
X104407200Y-48228571D02*
X104454819Y-48323809D01*
X104454819Y-48323809D02*
X104454819Y-48609523D01*
X104454819Y-48609523D02*
X104407200Y-48704761D01*
X104407200Y-48704761D02*
X104359580Y-48752380D01*
D14*
%TO.C,C2*%
X63721900Y-65615700D02*
X63721900Y-66403200D01*
X64115650Y-66009450D02*
X63328150Y-66009450D01*
X64219963Y-66643200D02*
X62934400Y-66643200D01*
X64219963Y-66643200D02*
X65284400Y-67707637D01*
X59528837Y-66643200D02*
X60814400Y-66643200D01*
X59528837Y-66643200D02*
X58464400Y-67707637D01*
X65284400Y-67707637D02*
X65284400Y-73463200D01*
X58464400Y-67707637D02*
X58464400Y-73463200D01*
X65284400Y-73463200D02*
X62934400Y-73463200D01*
X58464400Y-73463200D02*
X60814400Y-73463200D01*
%TO.C,12V IN*%
X47690000Y-45150000D02*
X47690000Y-50450000D01*
X47690000Y-47330000D02*
X48290000Y-47330000D01*
X47690000Y-49870000D02*
X48290000Y-49870000D01*
X47690000Y-50450000D02*
X53710000Y-50450000D01*
X48290000Y-45730000D02*
X47690000Y-45730000D01*
X48290000Y-47330000D02*
X48290000Y-45730000D01*
X48290000Y-48270000D02*
X47690000Y-48270000D01*
X48290000Y-49870000D02*
X48290000Y-48270000D01*
X48720000Y-50740000D02*
X52720000Y-50740000D01*
X52180000Y-46780000D02*
X52710000Y-46530000D01*
X52180000Y-48820000D02*
X52180000Y-46780000D01*
X52710000Y-46530000D02*
X53710000Y-46530000D01*
X52710000Y-49070000D02*
X52180000Y-48820000D01*
X52710000Y-49070000D02*
X52710000Y-46530000D01*
X53710000Y-45150000D02*
X47690000Y-45150000D01*
X53710000Y-46780000D02*
X52710000Y-46780000D01*
X53710000Y-48820000D02*
X52710000Y-48820000D01*
X53710000Y-49070000D02*
X52710000Y-49070000D01*
X53710000Y-50450000D02*
X53710000Y-45150000D01*
%TO.C,R1*%
X67790000Y-60710436D02*
X67790000Y-62164564D01*
X69610000Y-60710436D02*
X69610000Y-62164564D01*
%TO.C,J1*%
X96710000Y-52920000D02*
X96710000Y-58220000D01*
X96710000Y-54300000D02*
X97710000Y-54300000D01*
X96710000Y-54550000D02*
X97710000Y-54550000D01*
X96710000Y-56590000D02*
X97710000Y-56590000D01*
X96710000Y-58220000D02*
X102730000Y-58220000D01*
X97710000Y-54300000D02*
X97710000Y-56840000D01*
X97710000Y-54300000D02*
X98240000Y-54550000D01*
X97710000Y-56840000D02*
X96710000Y-56840000D01*
X98240000Y-54550000D02*
X98240000Y-56590000D01*
X98240000Y-56590000D02*
X97710000Y-56840000D01*
X101700000Y-52630000D02*
X97700000Y-52630000D01*
X102130000Y-53500000D02*
X102130000Y-55100000D01*
X102130000Y-55100000D02*
X102730000Y-55100000D01*
X102130000Y-56040000D02*
X102130000Y-57640000D01*
X102130000Y-57640000D02*
X102730000Y-57640000D01*
X102730000Y-52920000D02*
X96710000Y-52920000D01*
X102730000Y-53500000D02*
X102130000Y-53500000D01*
X102730000Y-56040000D02*
X102130000Y-56040000D01*
X102730000Y-58220000D02*
X102730000Y-52920000D01*
%TO.C,R3*%
X92360436Y-54965000D02*
X92814564Y-54965000D01*
X92360436Y-56435000D02*
X92814564Y-56435000D01*
%TO.C,C7*%
X71865000Y-66888748D02*
X71865000Y-67411252D01*
X73335000Y-66888748D02*
X73335000Y-67411252D01*
%TO.C,JP1*%
X93000000Y-66050000D02*
X93000000Y-64650000D01*
X93700000Y-63950000D02*
X94300000Y-63950000D01*
X94300000Y-66750000D02*
X93700000Y-66750000D01*
X95000000Y-64650000D02*
X95000000Y-66050000D01*
X93000000Y-64650000D02*
G75*
G02*
X93700000Y-63950000I699999J1D01*
G01*
X93700000Y-66750000D02*
G75*
G02*
X93000000Y-66050000I0J700000D01*
G01*
X94300000Y-63950000D02*
G75*
G02*
X95000000Y-64650000I1J-699999D01*
G01*
X95000000Y-66050000D02*
G75*
G02*
X94300000Y-66750000I-700000J0D01*
G01*
%TO.C,JP3*%
X88900000Y-59550000D02*
X88900000Y-58150000D01*
X89600000Y-57450000D02*
X90200000Y-57450000D01*
X90200000Y-60250000D02*
X89600000Y-60250000D01*
X90900000Y-58150000D02*
X90900000Y-59550000D01*
X88900000Y-58150000D02*
G75*
G02*
X89600000Y-57450000I700000J0D01*
G01*
X89600000Y-60250000D02*
G75*
G02*
X88900000Y-59550000I-1J699999D01*
G01*
X90200000Y-57450000D02*
G75*
G02*
X90900000Y-58150000I0J-700000D01*
G01*
X90900000Y-59550000D02*
G75*
G02*
X90200000Y-60250000I-699999J-1D01*
G01*
%TO.C,C4*%
X69165000Y-55511252D02*
X69165000Y-54988748D01*
X70635000Y-55511252D02*
X70635000Y-54988748D01*
%TO.C,C5*%
X75765000Y-66888748D02*
X75765000Y-67411252D01*
X77235000Y-66888748D02*
X77235000Y-67411252D01*
%TO.C,Motor Conn*%
X48090000Y-52810000D02*
X48090000Y-63190000D01*
X48090000Y-54990000D02*
X48690000Y-54990000D01*
X48090000Y-57530000D02*
X48690000Y-57530000D01*
X48090000Y-60070000D02*
X48690000Y-60070000D01*
X48090000Y-62610000D02*
X48690000Y-62610000D01*
X48090000Y-63190000D02*
X54110000Y-63190000D01*
X48690000Y-53390000D02*
X48090000Y-53390000D01*
X48690000Y-54990000D02*
X48690000Y-53390000D01*
X48690000Y-55930000D02*
X48090000Y-55930000D01*
X48690000Y-57530000D02*
X48690000Y-55930000D01*
X48690000Y-58470000D02*
X48090000Y-58470000D01*
X48690000Y-60070000D02*
X48690000Y-58470000D01*
X48690000Y-61010000D02*
X48090000Y-61010000D01*
X48690000Y-62610000D02*
X48690000Y-61010000D01*
X49120000Y-63480000D02*
X53120000Y-63480000D01*
X52580000Y-54440000D02*
X53110000Y-54190000D01*
X52580000Y-61560000D02*
X52580000Y-54440000D01*
X53110000Y-54190000D02*
X54110000Y-54190000D01*
X53110000Y-61810000D02*
X52580000Y-61560000D01*
X53110000Y-61810000D02*
X53110000Y-54190000D01*
X54110000Y-52810000D02*
X48090000Y-52810000D01*
X54110000Y-54440000D02*
X53110000Y-54440000D01*
X54110000Y-61560000D02*
X53110000Y-61560000D01*
X54110000Y-61810000D02*
X53110000Y-61810000D01*
X54110000Y-63190000D02*
X54110000Y-52810000D01*
%TO.C,R2*%
X63190000Y-59635436D02*
X63190000Y-61089564D01*
X65010000Y-59635436D02*
X65010000Y-61089564D01*
%TO.C,C9*%
X87065000Y-67011252D02*
X87065000Y-66488748D01*
X88535000Y-67011252D02*
X88535000Y-66488748D01*
%TO.C,Potentiometer*%
X61930000Y-36580000D02*
X71870000Y-36580000D01*
X61930000Y-40445000D02*
X61930000Y-36580000D01*
X61930000Y-48820000D02*
X61930000Y-44955000D01*
X61930000Y-48820000D02*
X63529000Y-48820000D01*
X65271000Y-48820000D02*
X66030000Y-48820000D01*
X67771000Y-48820000D02*
X68530000Y-48820000D01*
X70270000Y-48820000D02*
X71870000Y-48820000D01*
X71870000Y-40445000D02*
X71870000Y-36580000D01*
X71870000Y-48820000D02*
X71870000Y-44955000D01*
%TO.C,J2*%
X96910000Y-59920000D02*
X96910000Y-65220000D01*
X96910000Y-61300000D02*
X97910000Y-61300000D01*
X96910000Y-61550000D02*
X97910000Y-61550000D01*
X96910000Y-63590000D02*
X97910000Y-63590000D01*
X96910000Y-65220000D02*
X102930000Y-65220000D01*
X97910000Y-61300000D02*
X97910000Y-63840000D01*
X97910000Y-61300000D02*
X98440000Y-61550000D01*
X97910000Y-63840000D02*
X96910000Y-63840000D01*
X98440000Y-61550000D02*
X98440000Y-63590000D01*
X98440000Y-63590000D02*
X97910000Y-63840000D01*
X101900000Y-59630000D02*
X97900000Y-59630000D01*
X102330000Y-60500000D02*
X102330000Y-62100000D01*
X102330000Y-62100000D02*
X102930000Y-62100000D01*
X102330000Y-63040000D02*
X102330000Y-64640000D01*
X102330000Y-64640000D02*
X102930000Y-64640000D01*
X102930000Y-59920000D02*
X96910000Y-59920000D01*
X102930000Y-60500000D02*
X102330000Y-60500000D01*
X102930000Y-63040000D02*
X102330000Y-63040000D01*
X102930000Y-65220000D02*
X102930000Y-59920000D01*
%TO.C,C3*%
X75665000Y-52588748D02*
X75665000Y-53111252D01*
X77135000Y-52588748D02*
X77135000Y-53111252D01*
%TO.C,C8*%
X72265000Y-62688748D02*
X72265000Y-63211252D01*
X73735000Y-62688748D02*
X73735000Y-63211252D01*
%TO.C,JP2*%
X92900000Y-62050000D02*
X92900000Y-60650000D01*
X93600000Y-59950000D02*
X94200000Y-59950000D01*
X94200000Y-62750000D02*
X93600000Y-62750000D01*
X94900000Y-60650000D02*
X94900000Y-62050000D01*
X92900000Y-60650000D02*
G75*
G02*
X93600000Y-59950000I700000J0D01*
G01*
X93600000Y-62750000D02*
G75*
G02*
X92900000Y-62050000I-1J699999D01*
G01*
X94200000Y-59950000D02*
G75*
G02*
X94900000Y-60650000I0J-700000D01*
G01*
X94900000Y-62050000D02*
G75*
G02*
X94200000Y-62750000I-699999J-1D01*
G01*
D15*
%TO.C,U1*%
X78060000Y-56690000D02*
G75*
G02*
X77860000Y-56690000I-100000J0D01*
G01*
X77860000Y-56690000D02*
G75*
G02*
X78060000Y-56690000I100000J0D01*
G01*
D16*
X80000000Y-66395000D02*
X84400000Y-66395000D01*
X80000000Y-56055000D02*
X84400000Y-56055000D01*
D14*
%TO.C,J3*%
X97110000Y-46120000D02*
X97110000Y-51420000D01*
X97110000Y-47500000D02*
X98110000Y-47500000D01*
X97110000Y-47750000D02*
X98110000Y-47750000D01*
X97110000Y-49790000D02*
X98110000Y-49790000D01*
X97110000Y-51420000D02*
X103130000Y-51420000D01*
X98110000Y-47500000D02*
X98110000Y-50040000D01*
X98110000Y-47500000D02*
X98640000Y-47750000D01*
X98110000Y-50040000D02*
X97110000Y-50040000D01*
X98640000Y-47750000D02*
X98640000Y-49790000D01*
X98640000Y-49790000D02*
X98110000Y-50040000D01*
X102100000Y-45830000D02*
X98100000Y-45830000D01*
X102530000Y-46700000D02*
X102530000Y-48300000D01*
X102530000Y-48300000D02*
X103130000Y-48300000D01*
X102530000Y-49240000D02*
X102530000Y-50840000D01*
X102530000Y-50840000D02*
X103130000Y-50840000D01*
X103130000Y-46120000D02*
X97110000Y-46120000D01*
X103130000Y-46700000D02*
X102530000Y-46700000D01*
X103130000Y-49240000D02*
X102530000Y-49240000D01*
X103130000Y-51420000D02*
X103130000Y-46120000D01*
%TD*%
%LPC*%
D17*
%TO.C,U1*%
X85870000Y-65670000D02*
X84130000Y-65670000D01*
X84130000Y-65230000D01*
X85870000Y-65230000D01*
X85870000Y-65670000D01*
G36*
X85870000Y-65670000D02*
G01*
X84130000Y-65670000D01*
X84130000Y-65230000D01*
X85870000Y-65230000D01*
X85870000Y-65670000D01*
G37*
X85870000Y-65020000D02*
X84130000Y-65020000D01*
X84130000Y-64580000D01*
X85870000Y-64580000D01*
X85870000Y-65020000D01*
G36*
X85870000Y-65020000D02*
G01*
X84130000Y-65020000D01*
X84130000Y-64580000D01*
X85870000Y-64580000D01*
X85870000Y-65020000D01*
G37*
X85870000Y-64370000D02*
X84130000Y-64370000D01*
X84130000Y-63930000D01*
X85870000Y-63930000D01*
X85870000Y-64370000D01*
G36*
X85870000Y-64370000D02*
G01*
X84130000Y-64370000D01*
X84130000Y-63930000D01*
X85870000Y-63930000D01*
X85870000Y-64370000D01*
G37*
X85870000Y-63720000D02*
X84130000Y-63720000D01*
X84130000Y-63280000D01*
X85870000Y-63280000D01*
X85870000Y-63720000D01*
G36*
X85870000Y-63720000D02*
G01*
X84130000Y-63720000D01*
X84130000Y-63280000D01*
X85870000Y-63280000D01*
X85870000Y-63720000D01*
G37*
X85870000Y-63070000D02*
X84130000Y-63070000D01*
X84130000Y-62630000D01*
X85870000Y-62630000D01*
X85870000Y-63070000D01*
G36*
X85870000Y-63070000D02*
G01*
X84130000Y-63070000D01*
X84130000Y-62630000D01*
X85870000Y-62630000D01*
X85870000Y-63070000D01*
G37*
X85870000Y-62420000D02*
X84130000Y-62420000D01*
X84130000Y-61980000D01*
X85870000Y-61980000D01*
X85870000Y-62420000D01*
G36*
X85870000Y-62420000D02*
G01*
X84130000Y-62420000D01*
X84130000Y-61980000D01*
X85870000Y-61980000D01*
X85870000Y-62420000D01*
G37*
X85870000Y-61770000D02*
X84130000Y-61770000D01*
X84130000Y-61330000D01*
X85870000Y-61330000D01*
X85870000Y-61770000D01*
G36*
X85870000Y-61770000D02*
G01*
X84130000Y-61770000D01*
X84130000Y-61330000D01*
X85870000Y-61330000D01*
X85870000Y-61770000D01*
G37*
X85870000Y-61120000D02*
X84130000Y-61120000D01*
X84130000Y-60680000D01*
X85870000Y-60680000D01*
X85870000Y-61120000D01*
G36*
X85870000Y-61120000D02*
G01*
X84130000Y-61120000D01*
X84130000Y-60680000D01*
X85870000Y-60680000D01*
X85870000Y-61120000D01*
G37*
X85870000Y-60470000D02*
X84130000Y-60470000D01*
X84130000Y-60030000D01*
X85870000Y-60030000D01*
X85870000Y-60470000D01*
G36*
X85870000Y-60470000D02*
G01*
X84130000Y-60470000D01*
X84130000Y-60030000D01*
X85870000Y-60030000D01*
X85870000Y-60470000D01*
G37*
X85870000Y-59820000D02*
X84130000Y-59820000D01*
X84130000Y-59380000D01*
X85870000Y-59380000D01*
X85870000Y-59820000D01*
G36*
X85870000Y-59820000D02*
G01*
X84130000Y-59820000D01*
X84130000Y-59380000D01*
X85870000Y-59380000D01*
X85870000Y-59820000D01*
G37*
X85870000Y-59170000D02*
X84130000Y-59170000D01*
X84130000Y-58730000D01*
X85870000Y-58730000D01*
X85870000Y-59170000D01*
G36*
X85870000Y-59170000D02*
G01*
X84130000Y-59170000D01*
X84130000Y-58730000D01*
X85870000Y-58730000D01*
X85870000Y-59170000D01*
G37*
X85870000Y-58520000D02*
X84130000Y-58520000D01*
X84130000Y-58080000D01*
X85870000Y-58080000D01*
X85870000Y-58520000D01*
G36*
X85870000Y-58520000D02*
G01*
X84130000Y-58520000D01*
X84130000Y-58080000D01*
X85870000Y-58080000D01*
X85870000Y-58520000D01*
G37*
X85870000Y-57870000D02*
X84130000Y-57870000D01*
X84130000Y-57430000D01*
X85870000Y-57430000D01*
X85870000Y-57870000D01*
G36*
X85870000Y-57870000D02*
G01*
X84130000Y-57870000D01*
X84130000Y-57430000D01*
X85870000Y-57430000D01*
X85870000Y-57870000D01*
G37*
X85870000Y-57220000D02*
X84130000Y-57220000D01*
X84130000Y-56780000D01*
X85870000Y-56780000D01*
X85870000Y-57220000D01*
G36*
X85870000Y-57220000D02*
G01*
X84130000Y-57220000D01*
X84130000Y-56780000D01*
X85870000Y-56780000D01*
X85870000Y-57220000D01*
G37*
X83400000Y-64455000D02*
X81000000Y-64455000D01*
X81000000Y-57995000D01*
X83400000Y-57995000D01*
X83400000Y-64455000D01*
G36*
X83400000Y-64455000D02*
G01*
X81000000Y-64455000D01*
X81000000Y-57995000D01*
X83400000Y-57995000D01*
X83400000Y-64455000D01*
G37*
X80270000Y-65670000D02*
X78530000Y-65670000D01*
X78530000Y-65230000D01*
X80270000Y-65230000D01*
X80270000Y-65670000D01*
G36*
X80270000Y-65670000D02*
G01*
X78530000Y-65670000D01*
X78530000Y-65230000D01*
X80270000Y-65230000D01*
X80270000Y-65670000D01*
G37*
X80270000Y-65020000D02*
X78530000Y-65020000D01*
X78530000Y-64580000D01*
X80270000Y-64580000D01*
X80270000Y-65020000D01*
G36*
X80270000Y-65020000D02*
G01*
X78530000Y-65020000D01*
X78530000Y-64580000D01*
X80270000Y-64580000D01*
X80270000Y-65020000D01*
G37*
X80270000Y-64370000D02*
X78530000Y-64370000D01*
X78530000Y-63930000D01*
X80270000Y-63930000D01*
X80270000Y-64370000D01*
G36*
X80270000Y-64370000D02*
G01*
X78530000Y-64370000D01*
X78530000Y-63930000D01*
X80270000Y-63930000D01*
X80270000Y-64370000D01*
G37*
X80270000Y-63720000D02*
X78530000Y-63720000D01*
X78530000Y-63280000D01*
X80270000Y-63280000D01*
X80270000Y-63720000D01*
G36*
X80270000Y-63720000D02*
G01*
X78530000Y-63720000D01*
X78530000Y-63280000D01*
X80270000Y-63280000D01*
X80270000Y-63720000D01*
G37*
X80270000Y-63070000D02*
X78530000Y-63070000D01*
X78530000Y-62630000D01*
X80270000Y-62630000D01*
X80270000Y-63070000D01*
G36*
X80270000Y-63070000D02*
G01*
X78530000Y-63070000D01*
X78530000Y-62630000D01*
X80270000Y-62630000D01*
X80270000Y-63070000D01*
G37*
X80270000Y-62420000D02*
X78530000Y-62420000D01*
X78530000Y-61980000D01*
X80270000Y-61980000D01*
X80270000Y-62420000D01*
G36*
X80270000Y-62420000D02*
G01*
X78530000Y-62420000D01*
X78530000Y-61980000D01*
X80270000Y-61980000D01*
X80270000Y-62420000D01*
G37*
X80270000Y-61770000D02*
X78530000Y-61770000D01*
X78530000Y-61330000D01*
X80270000Y-61330000D01*
X80270000Y-61770000D01*
G36*
X80270000Y-61770000D02*
G01*
X78530000Y-61770000D01*
X78530000Y-61330000D01*
X80270000Y-61330000D01*
X80270000Y-61770000D01*
G37*
X80270000Y-61120000D02*
X78530000Y-61120000D01*
X78530000Y-60680000D01*
X80270000Y-60680000D01*
X80270000Y-61120000D01*
G36*
X80270000Y-61120000D02*
G01*
X78530000Y-61120000D01*
X78530000Y-60680000D01*
X80270000Y-60680000D01*
X80270000Y-61120000D01*
G37*
X80270000Y-60470000D02*
X78530000Y-60470000D01*
X78530000Y-60030000D01*
X80270000Y-60030000D01*
X80270000Y-60470000D01*
G36*
X80270000Y-60470000D02*
G01*
X78530000Y-60470000D01*
X78530000Y-60030000D01*
X80270000Y-60030000D01*
X80270000Y-60470000D01*
G37*
X80270000Y-59820000D02*
X78530000Y-59820000D01*
X78530000Y-59380000D01*
X80270000Y-59380000D01*
X80270000Y-59820000D01*
G36*
X80270000Y-59820000D02*
G01*
X78530000Y-59820000D01*
X78530000Y-59380000D01*
X80270000Y-59380000D01*
X80270000Y-59820000D01*
G37*
X80270000Y-59170000D02*
X78530000Y-59170000D01*
X78530000Y-58730000D01*
X80270000Y-58730000D01*
X80270000Y-59170000D01*
G36*
X80270000Y-59170000D02*
G01*
X78530000Y-59170000D01*
X78530000Y-58730000D01*
X80270000Y-58730000D01*
X80270000Y-59170000D01*
G37*
X80270000Y-58520000D02*
X78530000Y-58520000D01*
X78530000Y-58080000D01*
X80270000Y-58080000D01*
X80270000Y-58520000D01*
G36*
X80270000Y-58520000D02*
G01*
X78530000Y-58520000D01*
X78530000Y-58080000D01*
X80270000Y-58080000D01*
X80270000Y-58520000D01*
G37*
X80270000Y-57870000D02*
X78530000Y-57870000D01*
X78530000Y-57430000D01*
X80270000Y-57430000D01*
X80270000Y-57870000D01*
G36*
X80270000Y-57870000D02*
G01*
X78530000Y-57870000D01*
X78530000Y-57430000D01*
X80270000Y-57430000D01*
X80270000Y-57870000D01*
G37*
X80270000Y-57220000D02*
X78530000Y-57220000D01*
X78530000Y-56780000D01*
X80270000Y-56780000D01*
X80270000Y-57220000D01*
G36*
X80270000Y-57220000D02*
G01*
X78530000Y-57220000D01*
X78530000Y-56780000D01*
X80270000Y-56780000D01*
X80270000Y-57220000D01*
G37*
%TD*%
D18*
%TO.C,C2*%
X61874400Y-67353200D03*
X61874400Y-72753200D03*
%TD*%
D19*
%TO.C,12V IN*%
X50720000Y-49070000D03*
D20*
X50720000Y-46530000D03*
%TD*%
D21*
%TO.C,R1*%
X68700000Y-59975000D03*
X68700000Y-62900000D03*
%TD*%
D22*
%TO.C,J1*%
X99700000Y-54300000D03*
D20*
X99700000Y-56840000D03*
%TD*%
D23*
%TO.C,H3*%
X100100000Y-39300000D03*
%TD*%
%TO.C,H1*%
X52200000Y-39300000D03*
%TD*%
D24*
%TO.C,R3*%
X91675000Y-55700000D03*
X93500000Y-55700000D03*
%TD*%
D25*
%TO.C,C7*%
X72600000Y-66200000D03*
X72600000Y-68100000D03*
%TD*%
D26*
%TO.C,JP1*%
X94000000Y-64700000D03*
D27*
X94000000Y-66000000D03*
%TD*%
D28*
%TO.C,JP3*%
X89900000Y-59500000D03*
D29*
X89900000Y-58200000D03*
%TD*%
D30*
%TO.C,C4*%
X69900000Y-56200000D03*
X69900000Y-54300000D03*
%TD*%
D25*
%TO.C,C5*%
X76500000Y-66200000D03*
X76500000Y-68100000D03*
%TD*%
D19*
%TO.C,Motor Conn*%
X51120000Y-61810000D03*
D20*
X51120000Y-59270000D03*
X51120000Y-56730000D03*
X51120000Y-54190000D03*
%TD*%
D21*
%TO.C,R2*%
X64100000Y-58900000D03*
X64100000Y-61825000D03*
%TD*%
D23*
%TO.C,H4*%
X52200000Y-70900000D03*
%TD*%
D30*
%TO.C,C9*%
X87800000Y-67700000D03*
X87800000Y-65800000D03*
%TD*%
D31*
%TO.C,Potentiometer*%
X62500000Y-42700000D03*
X71300000Y-42700000D03*
D32*
X69400000Y-49700000D03*
X66900000Y-49700000D03*
X64400000Y-49700000D03*
%TD*%
D22*
%TO.C,J2*%
X99900000Y-61300000D03*
D20*
X99900000Y-63840000D03*
%TD*%
D25*
%TO.C,C3*%
X76400000Y-51900000D03*
X76400000Y-53800000D03*
%TD*%
%TO.C,C8*%
X73000000Y-62000000D03*
X73000000Y-63900000D03*
%TD*%
D23*
%TO.C,H2*%
X100100000Y-71100000D03*
%TD*%
D28*
%TO.C,JP2*%
X93900000Y-62000000D03*
D29*
X93900000Y-60700000D03*
%TD*%
D22*
%TO.C,J3*%
X100100000Y-47500000D03*
D20*
X100100000Y-50040000D03*
%TD*%
%LPD*%
M02*
